<?xml version="1.0" encoding="utf-8" standalone="no"?>
<!DOCTYPE svg PUBLIC "-//W3C//DTD SVG 1.1//EN"
  "http://www.w3.org/Graphics/SVG/1.1/DTD/svg11.dtd">
<svg xmlns:xlink="http://www.w3.org/1999/xlink" width="460.8pt" height="345.6pt" viewBox="0 0 460.8 345.6" xmlns="http://www.w3.org/2000/svg" version="1.1">
 <metadata>
  <rdf:RDF xmlns:dc="http://purl.org/dc/elements/1.1/" xmlns:cc="http://creativecommons.org/ns#" xmlns:rdf="http://www.w3.org/1999/02/22-rdf-syntax-ns#">
   <cc:Work>
    <dc:type rdf:resource="http://purl.org/dc/dcmitype/StillImage"/>
    <dc:date>2025-08-11T20:38:22.361716</dc:date>
    <dc:format>image/svg+xml</dc:format>
    <dc:creator>
     <cc:Agent>
      <dc:title>Matplotlib v3.7.2, https://matplotlib.org/</dc:title>
     </cc:Agent>
    </dc:creator>
   </cc:Work>
  </rdf:RDF>
 </metadata>
 <defs>
  <style type="text/css">*{stroke-linejoin: round; stroke-linecap: butt}</style>
 </defs>
 <g id="figure_1">
  <g id="patch_1">
   <path d="M 0 345.6 
L 460.8 345.6 
L 460.8 0 
L 0 0 
z
" style="fill: #ffffff"/>
  </g>
  <g id="axes_1">
   <g id="patch_2">
    <path d="M 57.6 162.432 
L 414.72 162.432 
L 414.72 41.472 
L 57.6 41.472 
z
" style="fill: #ffffff"/>
   </g>
   <g id="matplotlib.axis_1">
    <g id="xtick_1">
     <g id="line2d_1">
      <path d="M 73.832727 162.432 
L 73.832727 41.472 
" clip-path="url(#p1e1cda27c1)" style="fill: none; stroke: #b0b0b0; stroke-width: 0.8; stroke-linecap: square"/>
     </g>
     <g id="line2d_2">
      <defs>
       <path id="ma373004e63" d="M 0 0 
L 0 3.5 
" style="stroke: #000000; stroke-width: 0.8"/>
      </defs>
      <g>
       <use xlink:href="#ma373004e63" x="73.832727" y="162.432" style="stroke: #000000; stroke-width: 0.8"/>
      </g>
     </g>
     <g id="text_1">
      <!-- 0 -->
      <g transform="translate(70.651477 177.030437) scale(0.1 -0.1)">
       <defs>
        <path id="DejaVuSans-30" d="M 2034 4250 
Q 1547 4250 1301 3770 
Q 1056 3291 1056 2328 
Q 1056 1369 1301 889 
Q 1547 409 2034 409 
Q 2525 409 2770 889 
Q 3016 1369 3016 2328 
Q 3016 3291 2770 3770 
Q 2525 4250 2034 4250 
z
M 2034 4750 
Q 2819 4750 3233 4129 
Q 3647 3509 3647 2328 
Q 3647 1150 3233 529 
Q 2819 -91 2034 -91 
Q 1250 -91 836 529 
Q 422 1150 422 2328 
Q 422 3509 836 4129 
Q 1250 4750 2034 4750 
z
" transform="scale(0.015625)"/>
       </defs>
       <use xlink:href="#DejaVuSans-30"/>
      </g>
     </g>
    </g>
    <g id="xtick_2">
     <g id="line2d_3">
      <path d="M 109.905455 162.432 
L 109.905455 41.472 
" clip-path="url(#p1e1cda27c1)" style="fill: none; stroke: #b0b0b0; stroke-width: 0.8; stroke-linecap: square"/>
     </g>
     <g id="line2d_4">
      <g>
       <use xlink:href="#ma373004e63" x="109.905455" y="162.432" style="stroke: #000000; stroke-width: 0.8"/>
      </g>
     </g>
     <g id="text_2">
      <!-- 1 -->
      <g transform="translate(106.724205 177.030437) scale(0.1 -0.1)">
       <defs>
        <path id="DejaVuSans-31" d="M 794 531 
L 1825 531 
L 1825 4091 
L 703 3866 
L 703 4441 
L 1819 4666 
L 2450 4666 
L 2450 531 
L 3481 531 
L 3481 0 
L 794 0 
L 794 531 
z
" transform="scale(0.015625)"/>
       </defs>
       <use xlink:href="#DejaVuSans-31"/>
      </g>
     </g>
    </g>
    <g id="xtick_3">
     <g id="line2d_5">
      <path d="M 145.978182 162.432 
L 145.978182 41.472 
" clip-path="url(#p1e1cda27c1)" style="fill: none; stroke: #b0b0b0; stroke-width: 0.8; stroke-linecap: square"/>
     </g>
     <g id="line2d_6">
      <g>
       <use xlink:href="#ma373004e63" x="145.978182" y="162.432" style="stroke: #000000; stroke-width: 0.8"/>
      </g>
     </g>
     <g id="text_3">
      <!-- 2 -->
      <g transform="translate(142.796932 177.030437) scale(0.1 -0.1)">
       <defs>
        <path id="DejaVuSans-32" d="M 1228 531 
L 3431 531 
L 3431 0 
L 469 0 
L 469 531 
Q 828 903 1448 1529 
Q 2069 2156 2228 2338 
Q 2531 2678 2651 2914 
Q 2772 3150 2772 3378 
Q 2772 3750 2511 3984 
Q 2250 4219 1831 4219 
Q 1534 4219 1204 4116 
Q 875 4013 500 3803 
L 500 4441 
Q 881 4594 1212 4672 
Q 1544 4750 1819 4750 
Q 2544 4750 2975 4387 
Q 3406 4025 3406 3419 
Q 3406 3131 3298 2873 
Q 3191 2616 2906 2266 
Q 2828 2175 2409 1742 
Q 1991 1309 1228 531 
z
" transform="scale(0.015625)"/>
       </defs>
       <use xlink:href="#DejaVuSans-32"/>
      </g>
     </g>
    </g>
    <g id="xtick_4">
     <g id="line2d_7">
      <path d="M 182.050909 162.432 
L 182.050909 41.472 
" clip-path="url(#p1e1cda27c1)" style="fill: none; stroke: #b0b0b0; stroke-width: 0.8; stroke-linecap: square"/>
     </g>
     <g id="line2d_8">
      <g>
       <use xlink:href="#ma373004e63" x="182.050909" y="162.432" style="stroke: #000000; stroke-width: 0.8"/>
      </g>
     </g>
     <g id="text_4">
      <!-- 3 -->
      <g transform="translate(178.869659 177.030437) scale(0.1 -0.1)">
       <defs>
        <path id="DejaVuSans-33" d="M 2597 2516 
Q 3050 2419 3304 2112 
Q 3559 1806 3559 1356 
Q 3559 666 3084 287 
Q 2609 -91 1734 -91 
Q 1441 -91 1130 -33 
Q 819 25 488 141 
L 488 750 
Q 750 597 1062 519 
Q 1375 441 1716 441 
Q 2309 441 2620 675 
Q 2931 909 2931 1356 
Q 2931 1769 2642 2001 
Q 2353 2234 1838 2234 
L 1294 2234 
L 1294 2753 
L 1863 2753 
Q 2328 2753 2575 2939 
Q 2822 3125 2822 3475 
Q 2822 3834 2567 4026 
Q 2313 4219 1838 4219 
Q 1578 4219 1281 4162 
Q 984 4106 628 3988 
L 628 4550 
Q 988 4650 1302 4700 
Q 1616 4750 1894 4750 
Q 2613 4750 3031 4423 
Q 3450 4097 3450 3541 
Q 3450 3153 3228 2886 
Q 3006 2619 2597 2516 
z
" transform="scale(0.015625)"/>
       </defs>
       <use xlink:href="#DejaVuSans-33"/>
      </g>
     </g>
    </g>
    <g id="xtick_5">
     <g id="line2d_9">
      <path d="M 218.123636 162.432 
L 218.123636 41.472 
" clip-path="url(#p1e1cda27c1)" style="fill: none; stroke: #b0b0b0; stroke-width: 0.8; stroke-linecap: square"/>
     </g>
     <g id="line2d_10">
      <g>
       <use xlink:href="#ma373004e63" x="218.123636" y="162.432" style="stroke: #000000; stroke-width: 0.8"/>
      </g>
     </g>
     <g id="text_5">
      <!-- 4 -->
      <g transform="translate(214.942386 177.030437) scale(0.1 -0.1)">
       <defs>
        <path id="DejaVuSans-34" d="M 2419 4116 
L 825 1625 
L 2419 1625 
L 2419 4116 
z
M 2253 4666 
L 3047 4666 
L 3047 1625 
L 3713 1625 
L 3713 1100 
L 3047 1100 
L 3047 0 
L 2419 0 
L 2419 1100 
L 313 1100 
L 313 1709 
L 2253 4666 
z
" transform="scale(0.015625)"/>
       </defs>
       <use xlink:href="#DejaVuSans-34"/>
      </g>
     </g>
    </g>
    <g id="xtick_6">
     <g id="line2d_11">
      <path d="M 254.196364 162.432 
L 254.196364 41.472 
" clip-path="url(#p1e1cda27c1)" style="fill: none; stroke: #b0b0b0; stroke-width: 0.8; stroke-linecap: square"/>
     </g>
     <g id="line2d_12">
      <g>
       <use xlink:href="#ma373004e63" x="254.196364" y="162.432" style="stroke: #000000; stroke-width: 0.8"/>
      </g>
     </g>
     <g id="text_6">
      <!-- 5 -->
      <g transform="translate(251.015114 177.030437) scale(0.1 -0.1)">
       <defs>
        <path id="DejaVuSans-35" d="M 691 4666 
L 3169 4666 
L 3169 4134 
L 1269 4134 
L 1269 2991 
Q 1406 3038 1543 3061 
Q 1681 3084 1819 3084 
Q 2600 3084 3056 2656 
Q 3513 2228 3513 1497 
Q 3513 744 3044 326 
Q 2575 -91 1722 -91 
Q 1428 -91 1123 -41 
Q 819 9 494 109 
L 494 744 
Q 775 591 1075 516 
Q 1375 441 1709 441 
Q 2250 441 2565 725 
Q 2881 1009 2881 1497 
Q 2881 1984 2565 2268 
Q 2250 2553 1709 2553 
Q 1456 2553 1204 2497 
Q 953 2441 691 2322 
L 691 4666 
z
" transform="scale(0.015625)"/>
       </defs>
       <use xlink:href="#DejaVuSans-35"/>
      </g>
     </g>
    </g>
    <g id="xtick_7">
     <g id="line2d_13">
      <path d="M 290.269091 162.432 
L 290.269091 41.472 
" clip-path="url(#p1e1cda27c1)" style="fill: none; stroke: #b0b0b0; stroke-width: 0.8; stroke-linecap: square"/>
     </g>
     <g id="line2d_14">
      <g>
       <use xlink:href="#ma373004e63" x="290.269091" y="162.432" style="stroke: #000000; stroke-width: 0.8"/>
      </g>
     </g>
     <g id="text_7">
      <!-- 6 -->
      <g transform="translate(287.087841 177.030437) scale(0.1 -0.1)">
       <defs>
        <path id="DejaVuSans-36" d="M 2113 2584 
Q 1688 2584 1439 2293 
Q 1191 2003 1191 1497 
Q 1191 994 1439 701 
Q 1688 409 2113 409 
Q 2538 409 2786 701 
Q 3034 994 3034 1497 
Q 3034 2003 2786 2293 
Q 2538 2584 2113 2584 
z
M 3366 4563 
L 3366 3988 
Q 3128 4100 2886 4159 
Q 2644 4219 2406 4219 
Q 1781 4219 1451 3797 
Q 1122 3375 1075 2522 
Q 1259 2794 1537 2939 
Q 1816 3084 2150 3084 
Q 2853 3084 3261 2657 
Q 3669 2231 3669 1497 
Q 3669 778 3244 343 
Q 2819 -91 2113 -91 
Q 1303 -91 875 529 
Q 447 1150 447 2328 
Q 447 3434 972 4092 
Q 1497 4750 2381 4750 
Q 2619 4750 2861 4703 
Q 3103 4656 3366 4563 
z
" transform="scale(0.015625)"/>
       </defs>
       <use xlink:href="#DejaVuSans-36"/>
      </g>
     </g>
    </g>
    <g id="xtick_8">
     <g id="line2d_15">
      <path d="M 326.341818 162.432 
L 326.341818 41.472 
" clip-path="url(#p1e1cda27c1)" style="fill: none; stroke: #b0b0b0; stroke-width: 0.8; stroke-linecap: square"/>
     </g>
     <g id="line2d_16">
      <g>
       <use xlink:href="#ma373004e63" x="326.341818" y="162.432" style="stroke: #000000; stroke-width: 0.8"/>
      </g>
     </g>
     <g id="text_8">
      <!-- 7 -->
      <g transform="translate(323.160568 177.030437) scale(0.1 -0.1)">
       <defs>
        <path id="DejaVuSans-37" d="M 525 4666 
L 3525 4666 
L 3525 4397 
L 1831 0 
L 1172 0 
L 2766 4134 
L 525 4134 
L 525 4666 
z
" transform="scale(0.015625)"/>
       </defs>
       <use xlink:href="#DejaVuSans-37"/>
      </g>
     </g>
    </g>
    <g id="xtick_9">
     <g id="line2d_17">
      <path d="M 362.414545 162.432 
L 362.414545 41.472 
" clip-path="url(#p1e1cda27c1)" style="fill: none; stroke: #b0b0b0; stroke-width: 0.8; stroke-linecap: square"/>
     </g>
     <g id="line2d_18">
      <g>
       <use xlink:href="#ma373004e63" x="362.414545" y="162.432" style="stroke: #000000; stroke-width: 0.8"/>
      </g>
     </g>
     <g id="text_9">
      <!-- 8 -->
      <g transform="translate(359.233295 177.030437) scale(0.1 -0.1)">
       <defs>
        <path id="DejaVuSans-38" d="M 2034 2216 
Q 1584 2216 1326 1975 
Q 1069 1734 1069 1313 
Q 1069 891 1326 650 
Q 1584 409 2034 409 
Q 2484 409 2743 651 
Q 3003 894 3003 1313 
Q 3003 1734 2745 1975 
Q 2488 2216 2034 2216 
z
M 1403 2484 
Q 997 2584 770 2862 
Q 544 3141 544 3541 
Q 544 4100 942 4425 
Q 1341 4750 2034 4750 
Q 2731 4750 3128 4425 
Q 3525 4100 3525 3541 
Q 3525 3141 3298 2862 
Q 3072 2584 2669 2484 
Q 3125 2378 3379 2068 
Q 3634 1759 3634 1313 
Q 3634 634 3220 271 
Q 2806 -91 2034 -91 
Q 1263 -91 848 271 
Q 434 634 434 1313 
Q 434 1759 690 2068 
Q 947 2378 1403 2484 
z
M 1172 3481 
Q 1172 3119 1398 2916 
Q 1625 2713 2034 2713 
Q 2441 2713 2670 2916 
Q 2900 3119 2900 3481 
Q 2900 3844 2670 4047 
Q 2441 4250 2034 4250 
Q 1625 4250 1398 4047 
Q 1172 3844 1172 3481 
z
" transform="scale(0.015625)"/>
       </defs>
       <use xlink:href="#DejaVuSans-38"/>
      </g>
     </g>
    </g>
    <g id="xtick_10">
     <g id="line2d_19">
      <path d="M 398.487273 162.432 
L 398.487273 41.472 
" clip-path="url(#p1e1cda27c1)" style="fill: none; stroke: #b0b0b0; stroke-width: 0.8; stroke-linecap: square"/>
     </g>
     <g id="line2d_20">
      <g>
       <use xlink:href="#ma373004e63" x="398.487273" y="162.432" style="stroke: #000000; stroke-width: 0.8"/>
      </g>
     </g>
     <g id="text_10">
      <!-- 9 -->
      <g transform="translate(395.306023 177.030437) scale(0.1 -0.1)">
       <defs>
        <path id="DejaVuSans-39" d="M 703 97 
L 703 672 
Q 941 559 1184 500 
Q 1428 441 1663 441 
Q 2288 441 2617 861 
Q 2947 1281 2994 2138 
Q 2813 1869 2534 1725 
Q 2256 1581 1919 1581 
Q 1219 1581 811 2004 
Q 403 2428 403 3163 
Q 403 3881 828 4315 
Q 1253 4750 1959 4750 
Q 2769 4750 3195 4129 
Q 3622 3509 3622 2328 
Q 3622 1225 3098 567 
Q 2575 -91 1691 -91 
Q 1453 -91 1209 -44 
Q 966 3 703 97 
z
M 1959 2075 
Q 2384 2075 2632 2365 
Q 2881 2656 2881 3163 
Q 2881 3666 2632 3958 
Q 2384 4250 1959 4250 
Q 1534 4250 1286 3958 
Q 1038 3666 1038 3163 
Q 1038 2656 1286 2365 
Q 1534 2075 1959 2075 
z
" transform="scale(0.015625)"/>
       </defs>
       <use xlink:href="#DejaVuSans-39"/>
      </g>
     </g>
    </g>
   </g>
   <g id="matplotlib.axis_2">
    <g id="ytick_1">
     <g id="line2d_21">
      <path d="M 57.6 156.933818 
L 414.72 156.933818 
" clip-path="url(#p1e1cda27c1)" style="fill: none; stroke: #b0b0b0; stroke-width: 0.8; stroke-linecap: square"/>
     </g>
     <g id="line2d_22">
      <defs>
       <path id="mb8b5427b2e" d="M 0 0 
L -3.5 0 
" style="stroke: #000000; stroke-width: 0.8"/>
      </defs>
      <g>
       <use xlink:href="#mb8b5427b2e" x="57.6" y="156.933818" style="stroke: #000000; stroke-width: 0.8"/>
      </g>
     </g>
     <g id="text_11">
      <!-- 0.0 -->
      <g transform="translate(34.696875 160.733037) scale(0.1 -0.1)">
       <defs>
        <path id="DejaVuSans-2e" d="M 684 794 
L 1344 794 
L 1344 0 
L 684 0 
L 684 794 
z
" transform="scale(0.015625)"/>
       </defs>
       <use xlink:href="#DejaVuSans-30"/>
       <use xlink:href="#DejaVuSans-2e" x="63.623047"/>
       <use xlink:href="#DejaVuSans-30" x="95.410156"/>
      </g>
     </g>
    </g>
    <g id="ytick_2">
     <g id="line2d_23">
      <path d="M 57.6 145.937455 
L 414.72 145.937455 
" clip-path="url(#p1e1cda27c1)" style="fill: none; stroke: #b0b0b0; stroke-width: 0.8; stroke-linecap: square"/>
     </g>
     <g id="line2d_24">
      <g>
       <use xlink:href="#mb8b5427b2e" x="57.6" y="145.937455" style="stroke: #000000; stroke-width: 0.8"/>
      </g>
     </g>
     <g id="text_12">
      <!-- 0.1 -->
      <g transform="translate(34.696875 149.736673) scale(0.1 -0.1)">
       <use xlink:href="#DejaVuSans-30"/>
       <use xlink:href="#DejaVuSans-2e" x="63.623047"/>
       <use xlink:href="#DejaVuSans-31" x="95.410156"/>
      </g>
     </g>
    </g>
    <g id="ytick_3">
     <g id="line2d_25">
      <path d="M 57.6 134.941091 
L 414.72 134.941091 
" clip-path="url(#p1e1cda27c1)" style="fill: none; stroke: #b0b0b0; stroke-width: 0.8; stroke-linecap: square"/>
     </g>
     <g id="line2d_26">
      <g>
       <use xlink:href="#mb8b5427b2e" x="57.6" y="134.941091" style="stroke: #000000; stroke-width: 0.8"/>
      </g>
     </g>
     <g id="text_13">
      <!-- 0.2 -->
      <g transform="translate(34.696875 138.74031) scale(0.1 -0.1)">
       <use xlink:href="#DejaVuSans-30"/>
       <use xlink:href="#DejaVuSans-2e" x="63.623047"/>
       <use xlink:href="#DejaVuSans-32" x="95.410156"/>
      </g>
     </g>
    </g>
    <g id="ytick_4">
     <g id="line2d_27">
      <path d="M 57.6 123.944727 
L 414.72 123.944727 
" clip-path="url(#p1e1cda27c1)" style="fill: none; stroke: #b0b0b0; stroke-width: 0.8; stroke-linecap: square"/>
     </g>
     <g id="line2d_28">
      <g>
       <use xlink:href="#mb8b5427b2e" x="57.6" y="123.944727" style="stroke: #000000; stroke-width: 0.8"/>
      </g>
     </g>
     <g id="text_14">
      <!-- 0.3 -->
      <g transform="translate(34.696875 127.743946) scale(0.1 -0.1)">
       <use xlink:href="#DejaVuSans-30"/>
       <use xlink:href="#DejaVuSans-2e" x="63.623047"/>
       <use xlink:href="#DejaVuSans-33" x="95.410156"/>
      </g>
     </g>
    </g>
    <g id="ytick_5">
     <g id="line2d_29">
      <path d="M 57.6 112.948364 
L 414.72 112.948364 
" clip-path="url(#p1e1cda27c1)" style="fill: none; stroke: #b0b0b0; stroke-width: 0.8; stroke-linecap: square"/>
     </g>
     <g id="line2d_30">
      <g>
       <use xlink:href="#mb8b5427b2e" x="57.6" y="112.948364" style="stroke: #000000; stroke-width: 0.8"/>
      </g>
     </g>
     <g id="text_15">
      <!-- 0.4 -->
      <g transform="translate(34.696875 116.747582) scale(0.1 -0.1)">
       <use xlink:href="#DejaVuSans-30"/>
       <use xlink:href="#DejaVuSans-2e" x="63.623047"/>
       <use xlink:href="#DejaVuSans-34" x="95.410156"/>
      </g>
     </g>
    </g>
    <g id="ytick_6">
     <g id="line2d_31">
      <path d="M 57.6 101.952 
L 414.72 101.952 
" clip-path="url(#p1e1cda27c1)" style="fill: none; stroke: #b0b0b0; stroke-width: 0.8; stroke-linecap: square"/>
     </g>
     <g id="line2d_32">
      <g>
       <use xlink:href="#mb8b5427b2e" x="57.6" y="101.952" style="stroke: #000000; stroke-width: 0.8"/>
      </g>
     </g>
     <g id="text_16">
      <!-- 0.5 -->
      <g transform="translate(34.696875 105.751219) scale(0.1 -0.1)">
       <use xlink:href="#DejaVuSans-30"/>
       <use xlink:href="#DejaVuSans-2e" x="63.623047"/>
       <use xlink:href="#DejaVuSans-35" x="95.410156"/>
      </g>
     </g>
    </g>
    <g id="ytick_7">
     <g id="line2d_33">
      <path d="M 57.6 90.955636 
L 414.72 90.955636 
" clip-path="url(#p1e1cda27c1)" style="fill: none; stroke: #b0b0b0; stroke-width: 0.8; stroke-linecap: square"/>
     </g>
     <g id="line2d_34">
      <g>
       <use xlink:href="#mb8b5427b2e" x="57.6" y="90.955636" style="stroke: #000000; stroke-width: 0.8"/>
      </g>
     </g>
     <g id="text_17">
      <!-- 0.6 -->
      <g transform="translate(34.696875 94.754855) scale(0.1 -0.1)">
       <use xlink:href="#DejaVuSans-30"/>
       <use xlink:href="#DejaVuSans-2e" x="63.623047"/>
       <use xlink:href="#DejaVuSans-36" x="95.410156"/>
      </g>
     </g>
    </g>
    <g id="ytick_8">
     <g id="line2d_35">
      <path d="M 57.6 79.959273 
L 414.72 79.959273 
" clip-path="url(#p1e1cda27c1)" style="fill: none; stroke: #b0b0b0; stroke-width: 0.8; stroke-linecap: square"/>
     </g>
     <g id="line2d_36">
      <g>
       <use xlink:href="#mb8b5427b2e" x="57.6" y="79.959273" style="stroke: #000000; stroke-width: 0.8"/>
      </g>
     </g>
     <g id="text_18">
      <!-- 0.7 -->
      <g transform="translate(34.696875 83.758491) scale(0.1 -0.1)">
       <use xlink:href="#DejaVuSans-30"/>
       <use xlink:href="#DejaVuSans-2e" x="63.623047"/>
       <use xlink:href="#DejaVuSans-37" x="95.410156"/>
      </g>
     </g>
    </g>
    <g id="ytick_9">
     <g id="line2d_37">
      <path d="M 57.6 68.962909 
L 414.72 68.962909 
" clip-path="url(#p1e1cda27c1)" style="fill: none; stroke: #b0b0b0; stroke-width: 0.8; stroke-linecap: square"/>
     </g>
     <g id="line2d_38">
      <g>
       <use xlink:href="#mb8b5427b2e" x="57.6" y="68.962909" style="stroke: #000000; stroke-width: 0.8"/>
      </g>
     </g>
     <g id="text_19">
      <!-- 0.8 -->
      <g transform="translate(34.696875 72.762128) scale(0.1 -0.1)">
       <use xlink:href="#DejaVuSans-30"/>
       <use xlink:href="#DejaVuSans-2e" x="63.623047"/>
       <use xlink:href="#DejaVuSans-38" x="95.410156"/>
      </g>
     </g>
    </g>
    <g id="ytick_10">
     <g id="line2d_39">
      <path d="M 57.6 57.966545 
L 414.72 57.966545 
" clip-path="url(#p1e1cda27c1)" style="fill: none; stroke: #b0b0b0; stroke-width: 0.8; stroke-linecap: square"/>
     </g>
     <g id="line2d_40">
      <g>
       <use xlink:href="#mb8b5427b2e" x="57.6" y="57.966545" style="stroke: #000000; stroke-width: 0.8"/>
      </g>
     </g>
     <g id="text_20">
      <!-- 0.9 -->
      <g transform="translate(34.696875 61.765764) scale(0.1 -0.1)">
       <use xlink:href="#DejaVuSans-30"/>
       <use xlink:href="#DejaVuSans-2e" x="63.623047"/>
       <use xlink:href="#DejaVuSans-39" x="95.410156"/>
      </g>
     </g>
    </g>
    <g id="ytick_11">
     <g id="line2d_41">
      <path d="M 57.6 46.970182 
L 414.72 46.970182 
" clip-path="url(#p1e1cda27c1)" style="fill: none; stroke: #b0b0b0; stroke-width: 0.8; stroke-linecap: square"/>
     </g>
     <g id="line2d_42">
      <g>
       <use xlink:href="#mb8b5427b2e" x="57.6" y="46.970182" style="stroke: #000000; stroke-width: 0.8"/>
      </g>
     </g>
     <g id="text_21">
      <!-- 1.0 -->
      <g transform="translate(34.696875 50.769401) scale(0.1 -0.1)">
       <use xlink:href="#DejaVuSans-31"/>
       <use xlink:href="#DejaVuSans-2e" x="63.623047"/>
       <use xlink:href="#DejaVuSans-30" x="95.410156"/>
      </g>
     </g>
    </g>
   </g>
   <g id="line2d_43">
    <path d="M 73.832727 156.933818 
L 145.978182 156.933818 
" clip-path="url(#p1e1cda27c1)" style="fill: none; stroke: #000080; stroke-width: 1.5; stroke-linecap: square"/>
   </g>
   <g id="line2d_44">
    <path d="M 145.978182 114.474508 
L 147.781818 114.474508 
L 149.585455 114.474508 
L 151.389091 114.474508 
L 153.192727 114.474508 
L 154.996364 114.474508 
L 156.8 114.474508 
L 158.603636 114.474508 
L 160.407273 114.474508 
L 162.210909 114.474508 
L 164.014545 114.474508 
L 165.818182 114.474508 
L 167.621818 114.474508 
L 169.425455 114.474508 
L 171.229091 114.474508 
L 173.032727 114.474508 
L 174.836364 114.474508 
L 176.64 114.474508 
L 178.443636 114.474508 
L 180.247273 114.474508 
L 182.050909 114.474508 
L 183.854545 114.474508 
L 185.658182 114.474508 
L 187.461818 114.474508 
L 189.265455 114.474508 
L 191.069091 114.474508 
L 192.872727 114.474508 
L 194.676364 114.474508 
L 196.48 114.474508 
L 198.283636 114.474508 
L 200.087273 114.474508 
L 201.890909 114.474508 
L 203.694545 114.474508 
L 205.498182 114.474508 
L 207.301818 114.474508 
L 209.105455 114.474508 
L 210.909091 114.474508 
L 212.712727 114.474508 
L 214.516364 114.474508 
L 216.32 114.474508 
L 218.123636 114.474508 
L 219.927273 114.474508 
L 221.730909 114.474508 
L 223.534545 114.474508 
L 225.338182 114.474508 
L 227.141818 114.474508 
L 228.945455 114.474508 
L 230.749091 114.474508 
L 232.552727 114.474508 
L 234.356364 114.474508 
L 236.16 114.474508 
L 237.963636 114.474508 
L 239.767273 114.474508 
L 241.570909 114.474508 
L 243.374545 114.474508 
L 245.178182 114.474508 
L 246.981818 114.474508 
L 248.785455 114.474508 
L 250.589091 114.474508 
L 252.392727 114.474508 
L 254.196364 114.474508 
L 256 114.474508 
L 257.803636 114.474508 
L 259.607273 114.474508 
L 261.410909 114.474508 
L 263.214545 114.474508 
L 265.018182 114.474508 
L 266.821818 114.474508 
L 268.625455 114.474508 
L 270.429091 114.474508 
L 272.232727 114.474508 
L 274.036364 114.474508 
L 275.84 114.474508 
L 277.643636 114.474508 
L 279.447273 114.474508 
L 281.250909 114.474508 
L 283.054545 114.474508 
L 284.858182 114.474508 
L 286.661818 114.474508 
L 288.465455 114.474508 
L 290.269091 114.474508 
L 292.072727 114.474508 
L 293.876364 114.474508 
L 295.68 114.474508 
L 297.483636 114.474508 
L 299.287273 114.474508 
L 301.090909 114.474508 
L 302.894545 114.474508 
L 304.698182 114.474508 
L 306.501818 114.474508 
L 308.305455 114.474508 
L 310.109091 114.474508 
L 311.912727 114.474508 
L 313.716364 114.474508 
L 315.52 114.474508 
L 317.323636 114.474508 
L 319.127273 114.474508 
L 320.930909 114.474508 
L 322.734545 114.474508 
L 324.538182 114.474508 
L 326.341818 114.474508 
" clip-path="url(#p1e1cda27c1)" style="fill: none; stroke: #000080; stroke-width: 1.5; stroke-linecap: square"/>
   </g>
   <g id="line2d_45">
    <path d="M 326.341818 156.933818 
L 398.487273 156.933818 
" clip-path="url(#p1e1cda27c1)" style="fill: none; stroke: #000080; stroke-width: 1.5; stroke-linecap: square"/>
   </g>
   <g id="patch_3">
    <path d="M 57.6 162.432 
L 57.6 41.472 
" style="fill: none; stroke: #000000; stroke-width: 0.8; stroke-linejoin: miter; stroke-linecap: square"/>
   </g>
   <g id="patch_4">
    <path d="M 414.72 162.432 
L 414.72 41.472 
" style="fill: none; stroke: #000000; stroke-width: 0.8; stroke-linejoin: miter; stroke-linecap: square"/>
   </g>
   <g id="patch_5">
    <path d="M 57.6 162.432 
L 414.72 162.432 
" style="fill: none; stroke: #000000; stroke-width: 0.8; stroke-linejoin: miter; stroke-linecap: square"/>
   </g>
   <g id="patch_6">
    <path d="M 57.6 41.472 
L 414.72 41.472 
" style="fill: none; stroke: #000000; stroke-width: 0.8; stroke-linejoin: miter; stroke-linecap: square"/>
   </g>
   <g id="legend_1">
    <g id="patch_7">
     <path d="M 357.62 64.150125 
L 407.72 64.150125 
Q 409.72 64.150125 409.72 62.150125 
L 409.72 48.472 
Q 409.72 46.472 407.72 46.472 
L 357.62 46.472 
Q 355.62 46.472 355.62 48.472 
L 355.62 62.150125 
Q 355.62 64.150125 357.62 64.150125 
z
" style="fill: #ffffff; opacity: 0.8; stroke: #cccccc; stroke-linejoin: miter"/>
    </g>
    <g id="line2d_46">
     <path d="M 359.62 54.570437 
L 369.62 54.570437 
L 379.62 54.570437 
" style="fill: none; stroke: #000080; stroke-width: 1.5; stroke-linecap: square"/>
    </g>
    <g id="text_22">
     <!-- $u(t)$ -->
     <g transform="translate(387.62 58.070437) scale(0.1 -0.1)">
      <defs>
       <path id="DejaVuSans-Oblique-75" d="M 428 1388 
L 838 3500 
L 1416 3500 
L 1006 1409 
Q 975 1256 961 1147 
Q 947 1038 947 966 
Q 947 700 1109 554 
Q 1272 409 1569 409 
Q 2031 409 2368 721 
Q 2706 1034 2809 1563 
L 3194 3500 
L 3769 3500 
L 3091 0 
L 2516 0 
L 2631 550 
Q 2388 244 2052 76 
Q 1716 -91 1338 -91 
Q 878 -91 622 161 
Q 366 413 366 863 
Q 366 956 381 1097 
Q 397 1238 428 1388 
z
" transform="scale(0.015625)"/>
       <path id="DejaVuSans-28" d="M 1984 4856 
Q 1566 4138 1362 3434 
Q 1159 2731 1159 2009 
Q 1159 1288 1364 580 
Q 1569 -128 1984 -844 
L 1484 -844 
Q 1016 -109 783 600 
Q 550 1309 550 2009 
Q 550 2706 781 3412 
Q 1013 4119 1484 4856 
L 1984 4856 
z
" transform="scale(0.015625)"/>
       <path id="DejaVuSans-Oblique-74" d="M 2706 3500 
L 2619 3053 
L 1472 3053 
L 1100 1153 
Q 1081 1047 1072 975 
Q 1063 903 1063 863 
Q 1063 663 1183 572 
Q 1303 481 1569 481 
L 2150 481 
L 2053 0 
L 1503 0 
Q 991 0 739 200 
Q 488 400 488 806 
Q 488 878 497 964 
Q 506 1050 525 1153 
L 897 3053 
L 409 3053 
L 500 3500 
L 978 3500 
L 1172 4494 
L 1747 4494 
L 1556 3500 
L 2706 3500 
z
" transform="scale(0.015625)"/>
       <path id="DejaVuSans-29" d="M 513 4856 
L 1013 4856 
Q 1481 4119 1714 3412 
Q 1947 2706 1947 2009 
Q 1947 1309 1714 600 
Q 1481 -109 1013 -844 
L 513 -844 
Q 928 -128 1133 580 
Q 1338 1288 1338 2009 
Q 1338 2731 1133 3434 
Q 928 4138 513 4856 
z
" transform="scale(0.015625)"/>
      </defs>
      <use xlink:href="#DejaVuSans-Oblique-75" transform="translate(0 0.125)"/>
      <use xlink:href="#DejaVuSans-28" transform="translate(63.378906 0.125)"/>
      <use xlink:href="#DejaVuSans-Oblique-74" transform="translate(102.392578 0.125)"/>
      <use xlink:href="#DejaVuSans-29" transform="translate(141.601562 0.125)"/>
     </g>
    </g>
   </g>
  </g>
  <g id="axes_2">
   <g id="patch_8">
    <path d="M 57.6 307.584 
L 414.72 307.584 
L 414.72 186.624 
L 57.6 186.624 
z
" style="fill: #ffffff"/>
   </g>
   <g id="matplotlib.axis_3">
    <g id="xtick_11">
     <g id="line2d_47">
      <path d="M 73.832727 307.584 
L 73.832727 186.624 
" clip-path="url(#pfd18599306)" style="fill: none; stroke: #b0b0b0; stroke-width: 0.8; stroke-linecap: square"/>
     </g>
     <g id="line2d_48">
      <g>
       <use xlink:href="#ma373004e63" x="73.832727" y="307.584" style="stroke: #000000; stroke-width: 0.8"/>
      </g>
     </g>
     <g id="text_23">
      <!-- 0 -->
      <g transform="translate(70.651477 322.182437) scale(0.1 -0.1)">
       <use xlink:href="#DejaVuSans-30"/>
      </g>
     </g>
    </g>
    <g id="xtick_12">
     <g id="line2d_49">
      <path d="M 109.905455 307.584 
L 109.905455 186.624 
" clip-path="url(#pfd18599306)" style="fill: none; stroke: #b0b0b0; stroke-width: 0.8; stroke-linecap: square"/>
     </g>
     <g id="line2d_50">
      <g>
       <use xlink:href="#ma373004e63" x="109.905455" y="307.584" style="stroke: #000000; stroke-width: 0.8"/>
      </g>
     </g>
     <g id="text_24">
      <!-- 1 -->
      <g transform="translate(106.724205 322.182437) scale(0.1 -0.1)">
       <use xlink:href="#DejaVuSans-31"/>
      </g>
     </g>
    </g>
    <g id="xtick_13">
     <g id="line2d_51">
      <path d="M 145.978182 307.584 
L 145.978182 186.624 
" clip-path="url(#pfd18599306)" style="fill: none; stroke: #b0b0b0; stroke-width: 0.8; stroke-linecap: square"/>
     </g>
     <g id="line2d_52">
      <g>
       <use xlink:href="#ma373004e63" x="145.978182" y="307.584" style="stroke: #000000; stroke-width: 0.8"/>
      </g>
     </g>
     <g id="text_25">
      <!-- 2 -->
      <g transform="translate(142.796932 322.182437) scale(0.1 -0.1)">
       <use xlink:href="#DejaVuSans-32"/>
      </g>
     </g>
    </g>
    <g id="xtick_14">
     <g id="line2d_53">
      <path d="M 182.050909 307.584 
L 182.050909 186.624 
" clip-path="url(#pfd18599306)" style="fill: none; stroke: #b0b0b0; stroke-width: 0.8; stroke-linecap: square"/>
     </g>
     <g id="line2d_54">
      <g>
       <use xlink:href="#ma373004e63" x="182.050909" y="307.584" style="stroke: #000000; stroke-width: 0.8"/>
      </g>
     </g>
     <g id="text_26">
      <!-- 3 -->
      <g transform="translate(178.869659 322.182437) scale(0.1 -0.1)">
       <use xlink:href="#DejaVuSans-33"/>
      </g>
     </g>
    </g>
    <g id="xtick_15">
     <g id="line2d_55">
      <path d="M 218.123636 307.584 
L 218.123636 186.624 
" clip-path="url(#pfd18599306)" style="fill: none; stroke: #b0b0b0; stroke-width: 0.8; stroke-linecap: square"/>
     </g>
     <g id="line2d_56">
      <g>
       <use xlink:href="#ma373004e63" x="218.123636" y="307.584" style="stroke: #000000; stroke-width: 0.8"/>
      </g>
     </g>
     <g id="text_27">
      <!-- 4 -->
      <g transform="translate(214.942386 322.182437) scale(0.1 -0.1)">
       <use xlink:href="#DejaVuSans-34"/>
      </g>
     </g>
    </g>
    <g id="xtick_16">
     <g id="line2d_57">
      <path d="M 254.196364 307.584 
L 254.196364 186.624 
" clip-path="url(#pfd18599306)" style="fill: none; stroke: #b0b0b0; stroke-width: 0.8; stroke-linecap: square"/>
     </g>
     <g id="line2d_58">
      <g>
       <use xlink:href="#ma373004e63" x="254.196364" y="307.584" style="stroke: #000000; stroke-width: 0.8"/>
      </g>
     </g>
     <g id="text_28">
      <!-- 5 -->
      <g transform="translate(251.015114 322.182437) scale(0.1 -0.1)">
       <use xlink:href="#DejaVuSans-35"/>
      </g>
     </g>
    </g>
    <g id="xtick_17">
     <g id="line2d_59">
      <path d="M 290.269091 307.584 
L 290.269091 186.624 
" clip-path="url(#pfd18599306)" style="fill: none; stroke: #b0b0b0; stroke-width: 0.8; stroke-linecap: square"/>
     </g>
     <g id="line2d_60">
      <g>
       <use xlink:href="#ma373004e63" x="290.269091" y="307.584" style="stroke: #000000; stroke-width: 0.8"/>
      </g>
     </g>
     <g id="text_29">
      <!-- 6 -->
      <g transform="translate(287.087841 322.182437) scale(0.1 -0.1)">
       <use xlink:href="#DejaVuSans-36"/>
      </g>
     </g>
    </g>
    <g id="xtick_18">
     <g id="line2d_61">
      <path d="M 326.341818 307.584 
L 326.341818 186.624 
" clip-path="url(#pfd18599306)" style="fill: none; stroke: #b0b0b0; stroke-width: 0.8; stroke-linecap: square"/>
     </g>
     <g id="line2d_62">
      <g>
       <use xlink:href="#ma373004e63" x="326.341818" y="307.584" style="stroke: #000000; stroke-width: 0.8"/>
      </g>
     </g>
     <g id="text_30">
      <!-- 7 -->
      <g transform="translate(323.160568 322.182437) scale(0.1 -0.1)">
       <use xlink:href="#DejaVuSans-37"/>
      </g>
     </g>
    </g>
    <g id="xtick_19">
     <g id="line2d_63">
      <path d="M 362.414545 307.584 
L 362.414545 186.624 
" clip-path="url(#pfd18599306)" style="fill: none; stroke: #b0b0b0; stroke-width: 0.8; stroke-linecap: square"/>
     </g>
     <g id="line2d_64">
      <g>
       <use xlink:href="#ma373004e63" x="362.414545" y="307.584" style="stroke: #000000; stroke-width: 0.8"/>
      </g>
     </g>
     <g id="text_31">
      <!-- 8 -->
      <g transform="translate(359.233295 322.182437) scale(0.1 -0.1)">
       <use xlink:href="#DejaVuSans-38"/>
      </g>
     </g>
    </g>
    <g id="xtick_20">
     <g id="line2d_65">
      <path d="M 398.487273 307.584 
L 398.487273 186.624 
" clip-path="url(#pfd18599306)" style="fill: none; stroke: #b0b0b0; stroke-width: 0.8; stroke-linecap: square"/>
     </g>
     <g id="line2d_66">
      <g>
       <use xlink:href="#ma373004e63" x="398.487273" y="307.584" style="stroke: #000000; stroke-width: 0.8"/>
      </g>
     </g>
     <g id="text_32">
      <!-- 9 -->
      <g transform="translate(395.306023 322.182437) scale(0.1 -0.1)">
       <use xlink:href="#DejaVuSans-39"/>
      </g>
     </g>
    </g>
   </g>
   <g id="matplotlib.axis_4">
    <g id="ytick_12">
     <g id="line2d_67">
      <path d="M 57.6 302.085818 
L 414.72 302.085818 
" clip-path="url(#pfd18599306)" style="fill: none; stroke: #b0b0b0; stroke-width: 0.8; stroke-linecap: square"/>
     </g>
     <g id="line2d_68">
      <g>
       <use xlink:href="#mb8b5427b2e" x="57.6" y="302.085818" style="stroke: #000000; stroke-width: 0.8"/>
      </g>
     </g>
     <g id="text_33">
      <!-- 0 -->
      <g transform="translate(44.2375 305.885037) scale(0.1 -0.1)">
       <use xlink:href="#DejaVuSans-30"/>
      </g>
     </g>
    </g>
    <g id="ytick_13">
     <g id="line2d_69">
      <path d="M 57.6 280.071076 
L 414.72 280.071076 
" clip-path="url(#pfd18599306)" style="fill: none; stroke: #b0b0b0; stroke-width: 0.8; stroke-linecap: square"/>
     </g>
     <g id="line2d_70">
      <g>
       <use xlink:href="#mb8b5427b2e" x="57.6" y="280.071076" style="stroke: #000000; stroke-width: 0.8"/>
      </g>
     </g>
     <g id="text_34">
      <!-- 200 -->
      <g transform="translate(31.5125 283.870295) scale(0.1 -0.1)">
       <use xlink:href="#DejaVuSans-32"/>
       <use xlink:href="#DejaVuSans-30" x="63.623047"/>
       <use xlink:href="#DejaVuSans-30" x="127.246094"/>
      </g>
     </g>
    </g>
    <g id="ytick_14">
     <g id="line2d_71">
      <path d="M 57.6 258.056334 
L 414.72 258.056334 
" clip-path="url(#pfd18599306)" style="fill: none; stroke: #b0b0b0; stroke-width: 0.8; stroke-linecap: square"/>
     </g>
     <g id="line2d_72">
      <g>
       <use xlink:href="#mb8b5427b2e" x="57.6" y="258.056334" style="stroke: #000000; stroke-width: 0.8"/>
      </g>
     </g>
     <g id="text_35">
      <!-- 400 -->
      <g transform="translate(31.5125 261.855553) scale(0.1 -0.1)">
       <use xlink:href="#DejaVuSans-34"/>
       <use xlink:href="#DejaVuSans-30" x="63.623047"/>
       <use xlink:href="#DejaVuSans-30" x="127.246094"/>
      </g>
     </g>
    </g>
    <g id="ytick_15">
     <g id="line2d_73">
      <path d="M 57.6 236.041592 
L 414.72 236.041592 
" clip-path="url(#pfd18599306)" style="fill: none; stroke: #b0b0b0; stroke-width: 0.8; stroke-linecap: square"/>
     </g>
     <g id="line2d_74">
      <g>
       <use xlink:href="#mb8b5427b2e" x="57.6" y="236.041592" style="stroke: #000000; stroke-width: 0.8"/>
      </g>
     </g>
     <g id="text_36">
      <!-- 600 -->
      <g transform="translate(31.5125 239.840811) scale(0.1 -0.1)">
       <use xlink:href="#DejaVuSans-36"/>
       <use xlink:href="#DejaVuSans-30" x="63.623047"/>
       <use xlink:href="#DejaVuSans-30" x="127.246094"/>
      </g>
     </g>
    </g>
    <g id="ytick_16">
     <g id="line2d_75">
      <path d="M 57.6 214.02685 
L 414.72 214.02685 
" clip-path="url(#pfd18599306)" style="fill: none; stroke: #b0b0b0; stroke-width: 0.8; stroke-linecap: square"/>
     </g>
     <g id="line2d_76">
      <g>
       <use xlink:href="#mb8b5427b2e" x="57.6" y="214.02685" style="stroke: #000000; stroke-width: 0.8"/>
      </g>
     </g>
     <g id="text_37">
      <!-- 800 -->
      <g transform="translate(31.5125 217.826069) scale(0.1 -0.1)">
       <use xlink:href="#DejaVuSans-38"/>
       <use xlink:href="#DejaVuSans-30" x="63.623047"/>
       <use xlink:href="#DejaVuSans-30" x="127.246094"/>
      </g>
     </g>
    </g>
    <g id="ytick_17">
     <g id="line2d_77">
      <path d="M 57.6 192.012108 
L 414.72 192.012108 
" clip-path="url(#pfd18599306)" style="fill: none; stroke: #b0b0b0; stroke-width: 0.8; stroke-linecap: square"/>
     </g>
     <g id="line2d_78">
      <g>
       <use xlink:href="#mb8b5427b2e" x="57.6" y="192.012108" style="stroke: #000000; stroke-width: 0.8"/>
      </g>
     </g>
     <g id="text_38">
      <!-- 1000 -->
      <g transform="translate(25.15 195.811327) scale(0.1 -0.1)">
       <use xlink:href="#DejaVuSans-31"/>
       <use xlink:href="#DejaVuSans-30" x="63.623047"/>
       <use xlink:href="#DejaVuSans-30" x="127.246094"/>
       <use xlink:href="#DejaVuSans-30" x="190.869141"/>
      </g>
     </g>
    </g>
   </g>
   <g id="line2d_79">
    <path d="M 73.832727 192.122182 
L 74.594221 192.129294 
L 79.341405 192.181067 
L 84.161405 192.249526 
L 88.771437 192.334411 
L 93.178539 192.438377 
L 97.408877 192.564836 
L 101.486783 192.717825 
L 105.433852 192.902093 
L 109.269417 193.123253 
L 113.011029 193.38796 
L 116.674879 193.704136 
L 120.276181 194.081254 
L 123.829554 194.530697 
L 127.349423 195.06622 
L 130.85048 195.704559 
L 134.348251 196.466254 
L 137.859833 197.376784 
L 141.404952 198.468196 
L 145.007543 199.781551 
L 145.978182 200.17433 
" clip-path="url(#pfd18599306)" style="fill: none; stroke: #0000cd; stroke-width: 1.5; stroke-linecap: square"/>
   </g>
   <g id="line2d_80">
    <path d="M 73.832727 301.975744 
L 74.594221 301.971005 
L 79.341405 301.936512 
L 84.161405 301.890916 
L 88.771437 301.834397 
L 93.178539 301.765205 
L 97.408877 301.681087 
L 101.486783 301.579388 
L 105.433852 301.456991 
L 109.269417 301.310227 
L 113.011029 301.134764 
L 116.674879 300.92547 
L 120.276181 300.676243 
L 123.829554 300.379803 
L 127.349423 300.027424 
L 130.85048 299.608592 
L 134.348251 299.110553 
L 137.859833 298.517704 
L 141.404952 297.810743 
L 145.007543 296.965422 
L 145.978182 296.713784 
" clip-path="url(#pfd18599306)" style="fill: none; stroke: #ff0000; stroke-width: 1.5; stroke-linecap: square"/>
   </g>
   <g id="line2d_81">
    <path d="M 73.832727 302.085818 
L 74.594221 302.083445 
L 79.341405 302.066165 
L 84.161405 302.043303 
L 88.771437 302.014936 
L 93.178539 301.980162 
L 97.408877 301.937821 
L 101.486783 301.886532 
L 105.433852 301.82466 
L 109.269417 301.750264 
L 113.011029 301.66102 
L 116.674879 301.554139 
L 120.276181 301.426247 
L 123.829554 301.273244 
L 127.349423 301.0901 
L 130.85048 300.870593 
L 134.348251 300.606937 
L 137.859833 300.289256 
L 141.404952 299.904806 
L 145.007543 299.436772 
L 145.978182 299.295631 
" clip-path="url(#pfd18599306)" style="fill: none; stroke: #008000; stroke-width: 1.5; stroke-linecap: square"/>
   </g>
   <g id="line2d_82">
    <path d="M 145.978182 200.17433 
L 147.781818 200.639341 
L 149.585455 201.118617 
L 151.389091 201.612315 
L 153.192727 202.120575 
L 154.996364 202.643514 
L 156.8 203.181226 
L 158.603636 203.733783 
L 160.407273 204.301227 
L 162.210909 204.883575 
L 164.014545 205.480817 
L 165.818182 206.092909 
L 167.621818 206.719778 
L 169.425455 207.361318 
L 171.229091 208.017389 
L 173.032727 208.687818 
L 174.836364 209.372396 
L 176.64 210.070878 
L 178.443636 210.782983 
L 180.247273 211.508394 
L 182.050909 212.246758 
L 183.854545 212.997686 
L 185.658182 213.760753 
L 187.461818 214.535498 
L 189.265455 215.321428 
L 191.069091 216.118015 
L 192.872727 216.924701 
L 194.676364 217.740895 
L 196.48 218.565981 
L 198.283636 219.399313 
L 200.087273 220.240223 
L 201.890909 221.088019 
L 203.694545 221.941991 
L 205.498182 222.801411 
L 207.301818 223.665535 
L 209.105455 224.53361 
L 210.909091 225.404873 
L 212.712727 226.278554 
L 214.516364 227.153881 
L 216.32 228.030083 
L 218.123636 228.906391 
L 219.927273 229.78204 
L 221.730909 230.656277 
L 223.534545 231.528358 
L 225.338182 232.397553 
L 227.141818 233.263148 
L 228.945455 234.12445 
L 230.749091 234.980783 
L 232.552727 235.831496 
L 234.356364 236.675963 
L 236.16 237.513582 
L 237.963636 238.343781 
L 239.767273 239.166014 
L 241.570909 239.979766 
L 243.374545 240.784552 
L 245.178182 241.579919 
L 246.981818 242.365443 
L 248.785455 243.140735 
L 250.589091 243.905434 
L 252.392727 244.659213 
L 254.196364 245.401775 
L 256 246.132855 
L 257.803636 246.852217 
L 259.607273 247.559654 
L 261.410909 248.254989 
L 263.214545 248.938074 
L 265.018182 249.608785 
L 266.821818 250.267025 
L 268.625455 250.912724 
L 270.429091 251.545833 
L 272.232727 252.166325 
L 274.036364 252.774198 
L 275.84 253.369467 
L 277.643636 253.952167 
L 279.447273 254.52235 
L 281.250909 255.080085 
L 283.054545 255.625457 
L 284.858182 256.158566 
L 286.661818 256.679521 
L 288.465455 257.188448 
L 290.269091 257.685481 
L 292.072727 258.170764 
L 293.876364 258.644451 
L 295.68 259.106704 
L 297.483636 259.55769 
L 299.287273 259.997585 
L 301.090909 260.426569 
L 302.894545 260.844827 
L 304.698182 261.252547 
L 306.501818 261.649921 
L 308.305455 262.037143 
L 310.109091 262.414411 
L 311.912727 262.781921 
L 313.716364 263.139874 
L 315.52 263.488467 
L 317.323636 263.827901 
L 319.127273 264.158375 
L 320.930909 264.480086 
L 322.734545 264.793232 
L 324.538182 265.09801 
L 326.341818 265.394612 
" clip-path="url(#pfd18599306)" style="fill: none; stroke: #0000cd; stroke-width: 1.5; stroke-linecap: square"/>
   </g>
   <g id="line2d_83">
    <path d="M 145.978182 296.713784 
L 147.781818 296.522109 
L 149.585455 296.325868 
L 151.389091 296.12513 
L 153.192727 295.919979 
L 154.996364 295.710515 
L 156.8 295.496857 
L 158.603636 295.279142 
L 160.407273 295.057524 
L 162.210909 294.832177 
L 164.014545 294.603297 
L 165.818182 294.371095 
L 167.621818 294.135807 
L 169.425455 293.897686 
L 171.229091 293.657007 
L 173.032727 293.414064 
L 174.836364 293.169173 
L 176.64 292.922667 
L 178.443636 292.674899 
L 180.247273 292.42624 
L 182.050909 292.177078 
L 183.854545 291.927819 
L 185.658182 291.67888 
L 187.461818 291.430697 
L 189.265455 291.183714 
L 191.069091 290.938387 
L 192.872727 290.69518 
L 194.676364 290.454567 
L 196.48 290.217022 
L 198.283636 289.983025 
L 200.087273 289.753055 
L 201.890909 289.527591 
L 203.694545 289.307106 
L 205.498182 289.092067 
L 207.301818 288.882933 
L 209.105455 288.680152 
L 210.909091 288.484158 
L 212.712727 288.295371 
L 214.516364 288.114191 
L 216.32 287.941001 
L 218.123636 287.77616 
L 219.927273 287.620007 
L 221.730909 287.472853 
L 223.534545 287.334984 
L 225.338182 287.206658 
L 227.141818 287.088107 
L 228.945455 286.979531 
L 230.749091 286.881101 
L 232.552727 286.792956 
L 234.356364 286.715206 
L 236.16 286.64793 
L 237.963636 286.591177 
L 239.767273 286.544963 
L 241.570909 286.509278 
L 243.374545 286.48408 
L 245.178182 286.4693 
L 246.981818 286.464842 
L 248.785455 286.470583 
L 250.589091 286.486376 
L 252.392727 286.512051 
L 254.196364 286.547414 
L 256 286.592252 
L 257.803636 286.646332 
L 259.607273 286.709404 
L 261.410909 286.781203 
L 263.214545 286.861449 
L 265.018182 286.949848 
L 266.821818 287.046097 
L 268.625455 287.149884 
L 270.429091 287.260887 
L 272.232727 287.378779 
L 274.036364 287.503228 
L 275.84 287.6339 
L 277.643636 287.770455 
L 279.447273 287.912557 
L 281.250909 288.059866 
L 283.054545 288.212048 
L 284.858182 288.368766 
L 286.661818 288.529692 
L 288.465455 288.6945 
L 290.269091 288.862868 
L 292.072727 289.034482 
L 293.876364 289.209034 
L 295.68 289.386224 
L 297.483636 289.565757 
L 299.287273 289.747351 
L 301.090909 289.930727 
L 302.894545 290.115621 
L 304.698182 290.301772 
L 306.501818 290.488934 
L 308.305455 290.676866 
L 310.109091 290.865341 
L 311.912727 291.054138 
L 313.716364 291.243048 
L 315.52 291.431871 
L 317.323636 291.620417 
L 319.127273 291.808505 
L 320.930909 291.995965 
L 322.734545 292.182634 
L 324.538182 292.368361 
L 326.341818 292.553002 
" clip-path="url(#pfd18599306)" style="fill: none; stroke: #ff0000; stroke-width: 1.5; stroke-linecap: square"/>
   </g>
   <g id="line2d_84">
    <path d="M 145.978182 299.295631 
L 147.781818 299.022295 
L 149.585455 298.73926 
L 151.389091 298.4463 
L 153.192727 298.143191 
L 154.996364 297.829716 
L 156.8 297.505661 
L 158.603636 297.17082 
L 160.407273 296.824994 
L 162.210909 296.467992 
L 164.014545 296.099631 
L 165.818182 295.719741 
L 167.621818 295.32816 
L 169.425455 294.924741 
L 171.229091 294.509349 
L 173.032727 294.081862 
L 174.836364 293.642175 
L 176.64 293.1902 
L 178.443636 292.725863 
L 180.247273 292.249111 
L 182.050909 291.759908 
L 183.854545 291.25824 
L 185.658182 290.744111 
L 187.461818 290.217549 
L 189.265455 289.678603 
L 191.069091 289.127343 
L 192.872727 288.563863 
L 194.676364 287.988283 
L 196.48 287.400742 
L 198.283636 286.801407 
L 200.087273 286.190467 
L 201.890909 285.568135 
L 203.694545 284.934648 
L 205.498182 284.290267 
L 207.301818 283.635277 
L 209.105455 282.969982 
L 210.909091 282.294714 
L 212.712727 281.60982 
L 214.516364 280.915672 
L 216.32 280.21266 
L 218.123636 279.501193 
L 219.927273 278.781697 
L 221.730909 278.054615 
L 223.534545 277.320403 
L 225.338182 276.579533 
L 227.141818 275.832489 
L 228.945455 275.079764 
L 230.749091 274.321861 
L 232.552727 273.559293 
L 234.356364 272.792576 
L 236.16 272.022232 
L 237.963636 271.248787 
L 239.767273 270.472768 
L 241.570909 269.694701 
L 243.374545 268.915113 
L 245.178182 268.134526 
L 246.981818 267.35346 
L 248.785455 266.572427 
L 250.589091 265.791934 
L 252.392727 265.012481 
L 254.196364 264.234555 
L 256 263.458638 
L 257.803636 262.685196 
L 259.607273 261.914686 
L 261.410909 261.147552 
L 263.214545 260.384222 
L 265.018182 259.625112 
L 266.821818 258.870622 
L 268.625455 258.121137 
L 270.429091 257.377025 
L 272.232727 256.63864 
L 274.036364 255.906318 
L 275.84 255.180378 
L 277.643636 254.461122 
L 279.447273 253.748838 
L 281.250909 253.043793 
L 283.054545 252.346239 
L 284.858182 251.656413 
L 286.661818 250.974531 
L 288.465455 250.300797 
L 290.269091 249.635396 
L 292.072727 248.978499 
L 293.876364 248.330259 
L 295.68 247.690817 
L 297.483636 247.060297 
L 299.287273 246.438808 
L 301.090909 245.826448 
L 302.894545 245.223297 
L 304.698182 244.629425 
L 306.501818 244.04489 
L 308.305455 243.469735 
L 310.109091 242.903993 
L 311.912727 242.347685 
L 313.716364 241.800823 
L 315.52 241.263406 
L 317.323636 240.735426 
L 319.127273 240.216864 
L 320.930909 239.707694 
L 322.734545 239.207878 
L 324.538182 238.717374 
L 326.341818 238.236131 
" clip-path="url(#pfd18599306)" style="fill: none; stroke: #008000; stroke-width: 1.5; stroke-linecap: square"/>
   </g>
   <g id="line2d_85">
    <path d="M 326.341818 265.394612 
L 327.158143 265.609701 
L 335.321391 267.686647 
L 348.011923 270.624294 
L 361.908914 273.410147 
L 376.071828 275.79504 
L 390.234742 277.761248 
L 398.487273 278.735323 
" clip-path="url(#pfd18599306)" style="fill: none; stroke: #0000cd; stroke-width: 1.5; stroke-linecap: square"/>
   </g>
   <g id="line2d_86">
    <path d="M 326.341818 292.553002 
L 327.158143 292.553635 
L 335.321391 292.627722 
L 348.011923 292.965396 
L 361.908914 293.581418 
L 376.071828 294.382456 
L 390.234742 295.268305 
L 398.487273 295.793756 
" clip-path="url(#pfd18599306)" style="fill: none; stroke: #ff0000; stroke-width: 1.5; stroke-linecap: square"/>
   </g>
   <g id="line2d_87">
    <path d="M 326.341818 238.236131 
L 327.158143 238.020408 
L 335.321391 235.869376 
L 348.011923 232.594055 
L 361.908914 229.192179 
L 376.071828 226.006248 
L 390.234742 223.154191 
L 398.487273 221.654666 
" clip-path="url(#pfd18599306)" style="fill: none; stroke: #008000; stroke-width: 1.5; stroke-linecap: square"/>
   </g>
   <g id="line2d_88">
    <path d="M 57.6 265.394581 
L 414.72 265.394581 
" clip-path="url(#pfd18599306)" style="fill: none; stroke-dasharray: 1.5,2.475; stroke-dashoffset: 0; stroke: #000000; stroke-width: 1.5"/>
   </g>
   <g id="patch_9">
    <path d="M 57.6 307.584 
L 57.6 186.624 
" style="fill: none; stroke: #000000; stroke-width: 0.8; stroke-linejoin: miter; stroke-linecap: square"/>
   </g>
   <g id="patch_10">
    <path d="M 414.72 307.584 
L 414.72 186.624 
" style="fill: none; stroke: #000000; stroke-width: 0.8; stroke-linejoin: miter; stroke-linecap: square"/>
   </g>
   <g id="patch_11">
    <path d="M 57.6 307.584 
L 414.72 307.584 
" style="fill: none; stroke: #000000; stroke-width: 0.8; stroke-linejoin: miter; stroke-linecap: square"/>
   </g>
   <g id="patch_12">
    <path d="M 57.6 186.624 
L 414.72 186.624 
" style="fill: none; stroke: #000000; stroke-width: 0.8; stroke-linejoin: miter; stroke-linecap: square"/>
   </g>
   <g id="legend_2">
    <g id="patch_13">
     <path d="M 64.6 277.96025 
L 115.3 277.96025 
Q 117.3 277.96025 117.3 275.96025 
L 117.3 218.24775 
Q 117.3 216.24775 115.3 216.24775 
L 64.6 216.24775 
Q 62.6 216.24775 62.6 218.24775 
L 62.6 275.96025 
Q 62.6 277.96025 64.6 277.96025 
z
" style="fill: #ffffff; opacity: 0.8; stroke: #cccccc; stroke-linejoin: miter"/>
    </g>
    <g id="line2d_89">
     <path d="M 66.6 224.346187 
L 76.6 224.346187 
L 86.6 224.346187 
" style="fill: none; stroke: #0000cd; stroke-width: 1.5; stroke-linecap: square"/>
    </g>
    <g id="text_39">
     <!-- $S(t)$ -->
     <g transform="translate(94.6 227.846187) scale(0.1 -0.1)">
      <defs>
       <path id="DejaVuSans-Oblique-53" d="M 3859 4513 
L 3738 3897 
Q 3422 4066 3111 4152 
Q 2800 4238 2509 4238 
Q 1944 4238 1609 3991 
Q 1275 3744 1275 3334 
Q 1275 3109 1398 2989 
Q 1522 2869 2034 2731 
L 2413 2638 
Q 3053 2472 3303 2217 
Q 3553 1963 3553 1503 
Q 3553 797 2998 353 
Q 2444 -91 1538 -91 
Q 1166 -91 791 -17 
Q 416 56 38 206 
L 166 856 
Q 513 641 861 531 
Q 1209 422 1556 422 
Q 2147 422 2503 684 
Q 2859 947 2859 1369 
Q 2859 1650 2717 1795 
Q 2575 1941 2106 2059 
L 1728 2156 
Q 1081 2325 845 2545 
Q 609 2766 609 3163 
Q 609 3859 1145 4304 
Q 1681 4750 2541 4750 
Q 2875 4750 3203 4690 
Q 3531 4631 3859 4513 
z
" transform="scale(0.015625)"/>
      </defs>
      <use xlink:href="#DejaVuSans-Oblique-53" transform="translate(0 0.125)"/>
      <use xlink:href="#DejaVuSans-28" transform="translate(63.476562 0.125)"/>
      <use xlink:href="#DejaVuSans-Oblique-74" transform="translate(102.490234 0.125)"/>
      <use xlink:href="#DejaVuSans-29" transform="translate(141.699219 0.125)"/>
     </g>
    </g>
    <g id="line2d_90">
     <path d="M 66.6 239.024312 
L 76.6 239.024312 
L 86.6 239.024312 
" style="fill: none; stroke: #ff0000; stroke-width: 1.5; stroke-linecap: square"/>
    </g>
    <g id="text_40">
     <!-- $I(t)$ -->
     <g transform="translate(94.6 242.524312) scale(0.1 -0.1)">
      <defs>
       <path id="DejaVuSans-Oblique-49" d="M 1081 4666 
L 1716 4666 
L 806 0 
L 172 0 
L 1081 4666 
z
" transform="scale(0.015625)"/>
      </defs>
      <use xlink:href="#DejaVuSans-Oblique-49" transform="translate(0 0.125)"/>
      <use xlink:href="#DejaVuSans-28" transform="translate(29.492188 0.125)"/>
      <use xlink:href="#DejaVuSans-Oblique-74" transform="translate(68.505859 0.125)"/>
      <use xlink:href="#DejaVuSans-29" transform="translate(107.714844 0.125)"/>
     </g>
    </g>
    <g id="line2d_91">
     <path d="M 66.6 253.702437 
L 76.6 253.702437 
L 86.6 253.702437 
" style="fill: none; stroke: #008000; stroke-width: 1.5; stroke-linecap: square"/>
    </g>
    <g id="text_41">
     <!-- $R(t)$ -->
     <g transform="translate(94.6 257.202437) scale(0.1 -0.1)">
      <defs>
       <path id="DejaVuSans-Oblique-52" d="M 1613 4147 
L 1294 2491 
L 2106 2491 
Q 2584 2491 2879 2755 
Q 3175 3019 3175 3444 
Q 3175 3784 2976 3965 
Q 2778 4147 2406 4147 
L 1613 4147 
z
M 2772 2241 
Q 2972 2194 3105 2009 
Q 3238 1825 3413 1275 
L 3809 0 
L 3144 0 
L 2778 1197 
Q 2638 1659 2453 1815 
Q 2269 1972 1888 1972 
L 1191 1972 
L 806 0 
L 172 0 
L 1081 4666 
L 2503 4666 
Q 3150 4666 3495 4373 
Q 3841 4081 3841 3531 
Q 3841 3044 3547 2687 
Q 3253 2331 2772 2241 
z
" transform="scale(0.015625)"/>
      </defs>
      <use xlink:href="#DejaVuSans-Oblique-52" transform="translate(0 0.125)"/>
      <use xlink:href="#DejaVuSans-28" transform="translate(69.482422 0.125)"/>
      <use xlink:href="#DejaVuSans-Oblique-74" transform="translate(108.496094 0.125)"/>
      <use xlink:href="#DejaVuSans-29" transform="translate(147.705078 0.125)"/>
     </g>
    </g>
    <g id="line2d_92">
     <path d="M 66.6 268.380562 
L 76.6 268.380562 
L 86.6 268.380562 
" style="fill: none; stroke-dasharray: 1.5,2.475; stroke-dashoffset: 0; stroke: #000000; stroke-width: 1.5"/>
    </g>
    <g id="text_42">
     <!-- $S^\ast$ -->
     <g transform="translate(94.6 271.880562) scale(0.1 -0.1)">
      <defs>
       <path id="DejaVuSans-2217" d="M 2153 2006 
L 816 2778 
L 1081 3238 
L 2419 2466 
L 2419 4013 
L 2944 4013 
L 2944 2466 
L 4281 3238 
L 4547 2778 
L 3209 2006 
L 4547 1234 
L 4281 775 
L 2944 1547 
L 2944 0 
L 2419 0 
L 2419 1547 
L 1081 775 
L 816 1234 
L 2153 2006 
z
" transform="scale(0.015625)"/>
      </defs>
      <use xlink:href="#DejaVuSans-Oblique-53" transform="translate(0 0.826562)"/>
      <use xlink:href="#DejaVuSans-2217" transform="translate(84.314779 39.107812) scale(0.7)"/>
     </g>
    </g>
   </g>
  </g>
 </g>
 <defs>
  <clipPath id="p1e1cda27c1">
   <rect x="57.6" y="41.472" width="357.12" height="120.96"/>
  </clipPath>
  <clipPath id="pfd18599306">
   <rect x="57.6" y="186.624" width="357.12" height="120.96"/>
  </clipPath>
 </defs>
</svg>
