<?xml version="1.0" encoding="utf-8" standalone="no"?>
<!DOCTYPE svg PUBLIC "-//W3C//DTD SVG 1.1//EN"
  "http://www.w3.org/Graphics/SVG/1.1/DTD/svg11.dtd">
<svg xmlns:xlink="http://www.w3.org/1999/xlink" width="460.8pt" height="345.6pt" viewBox="0 0 460.8 345.6" xmlns="http://www.w3.org/2000/svg" version="1.1">
 <metadata>
  <rdf:RDF xmlns:dc="http://purl.org/dc/elements/1.1/" xmlns:cc="http://creativecommons.org/ns#" xmlns:rdf="http://www.w3.org/1999/02/22-rdf-syntax-ns#">
   <cc:Work>
    <dc:type rdf:resource="http://purl.org/dc/dcmitype/StillImage"/>
    <dc:date>2025-08-11T20:38:05.978570</dc:date>
    <dc:format>image/svg+xml</dc:format>
    <dc:creator>
     <cc:Agent>
      <dc:title>Matplotlib v3.7.2, https://matplotlib.org/</dc:title>
     </cc:Agent>
    </dc:creator>
   </cc:Work>
  </rdf:RDF>
 </metadata>
 <defs>
  <style type="text/css">*{stroke-linejoin: round; stroke-linecap: butt}</style>
 </defs>
 <g id="figure_1">
  <g id="patch_1">
   <path d="M 0 345.6 
L 460.8 345.6 
L 460.8 0 
L 0 0 
z
" style="fill: #ffffff"/>
  </g>
  <g id="axes_1">
   <g id="patch_2">
    <path d="M 57.6 162.432 
L 414.72 162.432 
L 414.72 41.472 
L 57.6 41.472 
z
" style="fill: #ffffff"/>
   </g>
   <g id="matplotlib.axis_1">
    <g id="xtick_1">
     <g id="line2d_1">
      <path d="M 73.832727 162.432 
L 73.832727 41.472 
" clip-path="url(#pcc5b4b3053)" style="fill: none; stroke: #b0b0b0; stroke-width: 0.8; stroke-linecap: square"/>
     </g>
     <g id="line2d_2">
      <defs>
       <path id="mb2ce817092" d="M 0 0 
L 0 3.5 
" style="stroke: #000000; stroke-width: 0.8"/>
      </defs>
      <g>
       <use xlink:href="#mb2ce817092" x="73.832727" y="162.432" style="stroke: #000000; stroke-width: 0.8"/>
      </g>
     </g>
     <g id="text_1">
      <!-- 0 -->
      <g transform="translate(70.651477 177.030437) scale(0.1 -0.1)">
       <defs>
        <path id="DejaVuSans-30" d="M 2034 4250 
Q 1547 4250 1301 3770 
Q 1056 3291 1056 2328 
Q 1056 1369 1301 889 
Q 1547 409 2034 409 
Q 2525 409 2770 889 
Q 3016 1369 3016 2328 
Q 3016 3291 2770 3770 
Q 2525 4250 2034 4250 
z
M 2034 4750 
Q 2819 4750 3233 4129 
Q 3647 3509 3647 2328 
Q 3647 1150 3233 529 
Q 2819 -91 2034 -91 
Q 1250 -91 836 529 
Q 422 1150 422 2328 
Q 422 3509 836 4129 
Q 1250 4750 2034 4750 
z
" transform="scale(0.015625)"/>
       </defs>
       <use xlink:href="#DejaVuSans-30"/>
      </g>
     </g>
    </g>
    <g id="xtick_2">
     <g id="line2d_3">
      <path d="M 109.905455 162.432 
L 109.905455 41.472 
" clip-path="url(#pcc5b4b3053)" style="fill: none; stroke: #b0b0b0; stroke-width: 0.8; stroke-linecap: square"/>
     </g>
     <g id="line2d_4">
      <g>
       <use xlink:href="#mb2ce817092" x="109.905455" y="162.432" style="stroke: #000000; stroke-width: 0.8"/>
      </g>
     </g>
     <g id="text_2">
      <!-- 1 -->
      <g transform="translate(106.724205 177.030437) scale(0.1 -0.1)">
       <defs>
        <path id="DejaVuSans-31" d="M 794 531 
L 1825 531 
L 1825 4091 
L 703 3866 
L 703 4441 
L 1819 4666 
L 2450 4666 
L 2450 531 
L 3481 531 
L 3481 0 
L 794 0 
L 794 531 
z
" transform="scale(0.015625)"/>
       </defs>
       <use xlink:href="#DejaVuSans-31"/>
      </g>
     </g>
    </g>
    <g id="xtick_3">
     <g id="line2d_5">
      <path d="M 145.978182 162.432 
L 145.978182 41.472 
" clip-path="url(#pcc5b4b3053)" style="fill: none; stroke: #b0b0b0; stroke-width: 0.8; stroke-linecap: square"/>
     </g>
     <g id="line2d_6">
      <g>
       <use xlink:href="#mb2ce817092" x="145.978182" y="162.432" style="stroke: #000000; stroke-width: 0.8"/>
      </g>
     </g>
     <g id="text_3">
      <!-- 2 -->
      <g transform="translate(142.796932 177.030437) scale(0.1 -0.1)">
       <defs>
        <path id="DejaVuSans-32" d="M 1228 531 
L 3431 531 
L 3431 0 
L 469 0 
L 469 531 
Q 828 903 1448 1529 
Q 2069 2156 2228 2338 
Q 2531 2678 2651 2914 
Q 2772 3150 2772 3378 
Q 2772 3750 2511 3984 
Q 2250 4219 1831 4219 
Q 1534 4219 1204 4116 
Q 875 4013 500 3803 
L 500 4441 
Q 881 4594 1212 4672 
Q 1544 4750 1819 4750 
Q 2544 4750 2975 4387 
Q 3406 4025 3406 3419 
Q 3406 3131 3298 2873 
Q 3191 2616 2906 2266 
Q 2828 2175 2409 1742 
Q 1991 1309 1228 531 
z
" transform="scale(0.015625)"/>
       </defs>
       <use xlink:href="#DejaVuSans-32"/>
      </g>
     </g>
    </g>
    <g id="xtick_4">
     <g id="line2d_7">
      <path d="M 182.050909 162.432 
L 182.050909 41.472 
" clip-path="url(#pcc5b4b3053)" style="fill: none; stroke: #b0b0b0; stroke-width: 0.8; stroke-linecap: square"/>
     </g>
     <g id="line2d_8">
      <g>
       <use xlink:href="#mb2ce817092" x="182.050909" y="162.432" style="stroke: #000000; stroke-width: 0.8"/>
      </g>
     </g>
     <g id="text_4">
      <!-- 3 -->
      <g transform="translate(178.869659 177.030437) scale(0.1 -0.1)">
       <defs>
        <path id="DejaVuSans-33" d="M 2597 2516 
Q 3050 2419 3304 2112 
Q 3559 1806 3559 1356 
Q 3559 666 3084 287 
Q 2609 -91 1734 -91 
Q 1441 -91 1130 -33 
Q 819 25 488 141 
L 488 750 
Q 750 597 1062 519 
Q 1375 441 1716 441 
Q 2309 441 2620 675 
Q 2931 909 2931 1356 
Q 2931 1769 2642 2001 
Q 2353 2234 1838 2234 
L 1294 2234 
L 1294 2753 
L 1863 2753 
Q 2328 2753 2575 2939 
Q 2822 3125 2822 3475 
Q 2822 3834 2567 4026 
Q 2313 4219 1838 4219 
Q 1578 4219 1281 4162 
Q 984 4106 628 3988 
L 628 4550 
Q 988 4650 1302 4700 
Q 1616 4750 1894 4750 
Q 2613 4750 3031 4423 
Q 3450 4097 3450 3541 
Q 3450 3153 3228 2886 
Q 3006 2619 2597 2516 
z
" transform="scale(0.015625)"/>
       </defs>
       <use xlink:href="#DejaVuSans-33"/>
      </g>
     </g>
    </g>
    <g id="xtick_5">
     <g id="line2d_9">
      <path d="M 218.123636 162.432 
L 218.123636 41.472 
" clip-path="url(#pcc5b4b3053)" style="fill: none; stroke: #b0b0b0; stroke-width: 0.8; stroke-linecap: square"/>
     </g>
     <g id="line2d_10">
      <g>
       <use xlink:href="#mb2ce817092" x="218.123636" y="162.432" style="stroke: #000000; stroke-width: 0.8"/>
      </g>
     </g>
     <g id="text_5">
      <!-- 4 -->
      <g transform="translate(214.942386 177.030437) scale(0.1 -0.1)">
       <defs>
        <path id="DejaVuSans-34" d="M 2419 4116 
L 825 1625 
L 2419 1625 
L 2419 4116 
z
M 2253 4666 
L 3047 4666 
L 3047 1625 
L 3713 1625 
L 3713 1100 
L 3047 1100 
L 3047 0 
L 2419 0 
L 2419 1100 
L 313 1100 
L 313 1709 
L 2253 4666 
z
" transform="scale(0.015625)"/>
       </defs>
       <use xlink:href="#DejaVuSans-34"/>
      </g>
     </g>
    </g>
    <g id="xtick_6">
     <g id="line2d_11">
      <path d="M 254.196364 162.432 
L 254.196364 41.472 
" clip-path="url(#pcc5b4b3053)" style="fill: none; stroke: #b0b0b0; stroke-width: 0.8; stroke-linecap: square"/>
     </g>
     <g id="line2d_12">
      <g>
       <use xlink:href="#mb2ce817092" x="254.196364" y="162.432" style="stroke: #000000; stroke-width: 0.8"/>
      </g>
     </g>
     <g id="text_6">
      <!-- 5 -->
      <g transform="translate(251.015114 177.030437) scale(0.1 -0.1)">
       <defs>
        <path id="DejaVuSans-35" d="M 691 4666 
L 3169 4666 
L 3169 4134 
L 1269 4134 
L 1269 2991 
Q 1406 3038 1543 3061 
Q 1681 3084 1819 3084 
Q 2600 3084 3056 2656 
Q 3513 2228 3513 1497 
Q 3513 744 3044 326 
Q 2575 -91 1722 -91 
Q 1428 -91 1123 -41 
Q 819 9 494 109 
L 494 744 
Q 775 591 1075 516 
Q 1375 441 1709 441 
Q 2250 441 2565 725 
Q 2881 1009 2881 1497 
Q 2881 1984 2565 2268 
Q 2250 2553 1709 2553 
Q 1456 2553 1204 2497 
Q 953 2441 691 2322 
L 691 4666 
z
" transform="scale(0.015625)"/>
       </defs>
       <use xlink:href="#DejaVuSans-35"/>
      </g>
     </g>
    </g>
    <g id="xtick_7">
     <g id="line2d_13">
      <path d="M 290.269091 162.432 
L 290.269091 41.472 
" clip-path="url(#pcc5b4b3053)" style="fill: none; stroke: #b0b0b0; stroke-width: 0.8; stroke-linecap: square"/>
     </g>
     <g id="line2d_14">
      <g>
       <use xlink:href="#mb2ce817092" x="290.269091" y="162.432" style="stroke: #000000; stroke-width: 0.8"/>
      </g>
     </g>
     <g id="text_7">
      <!-- 6 -->
      <g transform="translate(287.087841 177.030437) scale(0.1 -0.1)">
       <defs>
        <path id="DejaVuSans-36" d="M 2113 2584 
Q 1688 2584 1439 2293 
Q 1191 2003 1191 1497 
Q 1191 994 1439 701 
Q 1688 409 2113 409 
Q 2538 409 2786 701 
Q 3034 994 3034 1497 
Q 3034 2003 2786 2293 
Q 2538 2584 2113 2584 
z
M 3366 4563 
L 3366 3988 
Q 3128 4100 2886 4159 
Q 2644 4219 2406 4219 
Q 1781 4219 1451 3797 
Q 1122 3375 1075 2522 
Q 1259 2794 1537 2939 
Q 1816 3084 2150 3084 
Q 2853 3084 3261 2657 
Q 3669 2231 3669 1497 
Q 3669 778 3244 343 
Q 2819 -91 2113 -91 
Q 1303 -91 875 529 
Q 447 1150 447 2328 
Q 447 3434 972 4092 
Q 1497 4750 2381 4750 
Q 2619 4750 2861 4703 
Q 3103 4656 3366 4563 
z
" transform="scale(0.015625)"/>
       </defs>
       <use xlink:href="#DejaVuSans-36"/>
      </g>
     </g>
    </g>
    <g id="xtick_8">
     <g id="line2d_15">
      <path d="M 326.341818 162.432 
L 326.341818 41.472 
" clip-path="url(#pcc5b4b3053)" style="fill: none; stroke: #b0b0b0; stroke-width: 0.8; stroke-linecap: square"/>
     </g>
     <g id="line2d_16">
      <g>
       <use xlink:href="#mb2ce817092" x="326.341818" y="162.432" style="stroke: #000000; stroke-width: 0.8"/>
      </g>
     </g>
     <g id="text_8">
      <!-- 7 -->
      <g transform="translate(323.160568 177.030437) scale(0.1 -0.1)">
       <defs>
        <path id="DejaVuSans-37" d="M 525 4666 
L 3525 4666 
L 3525 4397 
L 1831 0 
L 1172 0 
L 2766 4134 
L 525 4134 
L 525 4666 
z
" transform="scale(0.015625)"/>
       </defs>
       <use xlink:href="#DejaVuSans-37"/>
      </g>
     </g>
    </g>
    <g id="xtick_9">
     <g id="line2d_17">
      <path d="M 362.414545 162.432 
L 362.414545 41.472 
" clip-path="url(#pcc5b4b3053)" style="fill: none; stroke: #b0b0b0; stroke-width: 0.8; stroke-linecap: square"/>
     </g>
     <g id="line2d_18">
      <g>
       <use xlink:href="#mb2ce817092" x="362.414545" y="162.432" style="stroke: #000000; stroke-width: 0.8"/>
      </g>
     </g>
     <g id="text_9">
      <!-- 8 -->
      <g transform="translate(359.233295 177.030437) scale(0.1 -0.1)">
       <defs>
        <path id="DejaVuSans-38" d="M 2034 2216 
Q 1584 2216 1326 1975 
Q 1069 1734 1069 1313 
Q 1069 891 1326 650 
Q 1584 409 2034 409 
Q 2484 409 2743 651 
Q 3003 894 3003 1313 
Q 3003 1734 2745 1975 
Q 2488 2216 2034 2216 
z
M 1403 2484 
Q 997 2584 770 2862 
Q 544 3141 544 3541 
Q 544 4100 942 4425 
Q 1341 4750 2034 4750 
Q 2731 4750 3128 4425 
Q 3525 4100 3525 3541 
Q 3525 3141 3298 2862 
Q 3072 2584 2669 2484 
Q 3125 2378 3379 2068 
Q 3634 1759 3634 1313 
Q 3634 634 3220 271 
Q 2806 -91 2034 -91 
Q 1263 -91 848 271 
Q 434 634 434 1313 
Q 434 1759 690 2068 
Q 947 2378 1403 2484 
z
M 1172 3481 
Q 1172 3119 1398 2916 
Q 1625 2713 2034 2713 
Q 2441 2713 2670 2916 
Q 2900 3119 2900 3481 
Q 2900 3844 2670 4047 
Q 2441 4250 2034 4250 
Q 1625 4250 1398 4047 
Q 1172 3844 1172 3481 
z
" transform="scale(0.015625)"/>
       </defs>
       <use xlink:href="#DejaVuSans-38"/>
      </g>
     </g>
    </g>
    <g id="xtick_10">
     <g id="line2d_19">
      <path d="M 398.487273 162.432 
L 398.487273 41.472 
" clip-path="url(#pcc5b4b3053)" style="fill: none; stroke: #b0b0b0; stroke-width: 0.8; stroke-linecap: square"/>
     </g>
     <g id="line2d_20">
      <g>
       <use xlink:href="#mb2ce817092" x="398.487273" y="162.432" style="stroke: #000000; stroke-width: 0.8"/>
      </g>
     </g>
     <g id="text_10">
      <!-- 9 -->
      <g transform="translate(395.306023 177.030437) scale(0.1 -0.1)">
       <defs>
        <path id="DejaVuSans-39" d="M 703 97 
L 703 672 
Q 941 559 1184 500 
Q 1428 441 1663 441 
Q 2288 441 2617 861 
Q 2947 1281 2994 2138 
Q 2813 1869 2534 1725 
Q 2256 1581 1919 1581 
Q 1219 1581 811 2004 
Q 403 2428 403 3163 
Q 403 3881 828 4315 
Q 1253 4750 1959 4750 
Q 2769 4750 3195 4129 
Q 3622 3509 3622 2328 
Q 3622 1225 3098 567 
Q 2575 -91 1691 -91 
Q 1453 -91 1209 -44 
Q 966 3 703 97 
z
M 1959 2075 
Q 2384 2075 2632 2365 
Q 2881 2656 2881 3163 
Q 2881 3666 2632 3958 
Q 2384 4250 1959 4250 
Q 1534 4250 1286 3958 
Q 1038 3666 1038 3163 
Q 1038 2656 1286 2365 
Q 1534 2075 1959 2075 
z
" transform="scale(0.015625)"/>
       </defs>
       <use xlink:href="#DejaVuSans-39"/>
      </g>
     </g>
    </g>
   </g>
   <g id="matplotlib.axis_2">
    <g id="ytick_1">
     <g id="line2d_21">
      <path d="M 57.6 156.933818 
L 414.72 156.933818 
" clip-path="url(#pcc5b4b3053)" style="fill: none; stroke: #b0b0b0; stroke-width: 0.8; stroke-linecap: square"/>
     </g>
     <g id="line2d_22">
      <defs>
       <path id="m12e7d42c42" d="M 0 0 
L -3.5 0 
" style="stroke: #000000; stroke-width: 0.8"/>
      </defs>
      <g>
       <use xlink:href="#m12e7d42c42" x="57.6" y="156.933818" style="stroke: #000000; stroke-width: 0.8"/>
      </g>
     </g>
     <g id="text_11">
      <!-- 0.0 -->
      <g transform="translate(34.696875 160.733037) scale(0.1 -0.1)">
       <defs>
        <path id="DejaVuSans-2e" d="M 684 794 
L 1344 794 
L 1344 0 
L 684 0 
L 684 794 
z
" transform="scale(0.015625)"/>
       </defs>
       <use xlink:href="#DejaVuSans-30"/>
       <use xlink:href="#DejaVuSans-2e" x="63.623047"/>
       <use xlink:href="#DejaVuSans-30" x="95.410156"/>
      </g>
     </g>
    </g>
    <g id="ytick_2">
     <g id="line2d_23">
      <path d="M 57.6 145.937455 
L 414.72 145.937455 
" clip-path="url(#pcc5b4b3053)" style="fill: none; stroke: #b0b0b0; stroke-width: 0.8; stroke-linecap: square"/>
     </g>
     <g id="line2d_24">
      <g>
       <use xlink:href="#m12e7d42c42" x="57.6" y="145.937455" style="stroke: #000000; stroke-width: 0.8"/>
      </g>
     </g>
     <g id="text_12">
      <!-- 0.1 -->
      <g transform="translate(34.696875 149.736673) scale(0.1 -0.1)">
       <use xlink:href="#DejaVuSans-30"/>
       <use xlink:href="#DejaVuSans-2e" x="63.623047"/>
       <use xlink:href="#DejaVuSans-31" x="95.410156"/>
      </g>
     </g>
    </g>
    <g id="ytick_3">
     <g id="line2d_25">
      <path d="M 57.6 134.941091 
L 414.72 134.941091 
" clip-path="url(#pcc5b4b3053)" style="fill: none; stroke: #b0b0b0; stroke-width: 0.8; stroke-linecap: square"/>
     </g>
     <g id="line2d_26">
      <g>
       <use xlink:href="#m12e7d42c42" x="57.6" y="134.941091" style="stroke: #000000; stroke-width: 0.8"/>
      </g>
     </g>
     <g id="text_13">
      <!-- 0.2 -->
      <g transform="translate(34.696875 138.74031) scale(0.1 -0.1)">
       <use xlink:href="#DejaVuSans-30"/>
       <use xlink:href="#DejaVuSans-2e" x="63.623047"/>
       <use xlink:href="#DejaVuSans-32" x="95.410156"/>
      </g>
     </g>
    </g>
    <g id="ytick_4">
     <g id="line2d_27">
      <path d="M 57.6 123.944727 
L 414.72 123.944727 
" clip-path="url(#pcc5b4b3053)" style="fill: none; stroke: #b0b0b0; stroke-width: 0.8; stroke-linecap: square"/>
     </g>
     <g id="line2d_28">
      <g>
       <use xlink:href="#m12e7d42c42" x="57.6" y="123.944727" style="stroke: #000000; stroke-width: 0.8"/>
      </g>
     </g>
     <g id="text_14">
      <!-- 0.3 -->
      <g transform="translate(34.696875 127.743946) scale(0.1 -0.1)">
       <use xlink:href="#DejaVuSans-30"/>
       <use xlink:href="#DejaVuSans-2e" x="63.623047"/>
       <use xlink:href="#DejaVuSans-33" x="95.410156"/>
      </g>
     </g>
    </g>
    <g id="ytick_5">
     <g id="line2d_29">
      <path d="M 57.6 112.948364 
L 414.72 112.948364 
" clip-path="url(#pcc5b4b3053)" style="fill: none; stroke: #b0b0b0; stroke-width: 0.8; stroke-linecap: square"/>
     </g>
     <g id="line2d_30">
      <g>
       <use xlink:href="#m12e7d42c42" x="57.6" y="112.948364" style="stroke: #000000; stroke-width: 0.8"/>
      </g>
     </g>
     <g id="text_15">
      <!-- 0.4 -->
      <g transform="translate(34.696875 116.747582) scale(0.1 -0.1)">
       <use xlink:href="#DejaVuSans-30"/>
       <use xlink:href="#DejaVuSans-2e" x="63.623047"/>
       <use xlink:href="#DejaVuSans-34" x="95.410156"/>
      </g>
     </g>
    </g>
    <g id="ytick_6">
     <g id="line2d_31">
      <path d="M 57.6 101.952 
L 414.72 101.952 
" clip-path="url(#pcc5b4b3053)" style="fill: none; stroke: #b0b0b0; stroke-width: 0.8; stroke-linecap: square"/>
     </g>
     <g id="line2d_32">
      <g>
       <use xlink:href="#m12e7d42c42" x="57.6" y="101.952" style="stroke: #000000; stroke-width: 0.8"/>
      </g>
     </g>
     <g id="text_16">
      <!-- 0.5 -->
      <g transform="translate(34.696875 105.751219) scale(0.1 -0.1)">
       <use xlink:href="#DejaVuSans-30"/>
       <use xlink:href="#DejaVuSans-2e" x="63.623047"/>
       <use xlink:href="#DejaVuSans-35" x="95.410156"/>
      </g>
     </g>
    </g>
    <g id="ytick_7">
     <g id="line2d_33">
      <path d="M 57.6 90.955636 
L 414.72 90.955636 
" clip-path="url(#pcc5b4b3053)" style="fill: none; stroke: #b0b0b0; stroke-width: 0.8; stroke-linecap: square"/>
     </g>
     <g id="line2d_34">
      <g>
       <use xlink:href="#m12e7d42c42" x="57.6" y="90.955636" style="stroke: #000000; stroke-width: 0.8"/>
      </g>
     </g>
     <g id="text_17">
      <!-- 0.6 -->
      <g transform="translate(34.696875 94.754855) scale(0.1 -0.1)">
       <use xlink:href="#DejaVuSans-30"/>
       <use xlink:href="#DejaVuSans-2e" x="63.623047"/>
       <use xlink:href="#DejaVuSans-36" x="95.410156"/>
      </g>
     </g>
    </g>
    <g id="ytick_8">
     <g id="line2d_35">
      <path d="M 57.6 79.959273 
L 414.72 79.959273 
" clip-path="url(#pcc5b4b3053)" style="fill: none; stroke: #b0b0b0; stroke-width: 0.8; stroke-linecap: square"/>
     </g>
     <g id="line2d_36">
      <g>
       <use xlink:href="#m12e7d42c42" x="57.6" y="79.959273" style="stroke: #000000; stroke-width: 0.8"/>
      </g>
     </g>
     <g id="text_18">
      <!-- 0.7 -->
      <g transform="translate(34.696875 83.758491) scale(0.1 -0.1)">
       <use xlink:href="#DejaVuSans-30"/>
       <use xlink:href="#DejaVuSans-2e" x="63.623047"/>
       <use xlink:href="#DejaVuSans-37" x="95.410156"/>
      </g>
     </g>
    </g>
    <g id="ytick_9">
     <g id="line2d_37">
      <path d="M 57.6 68.962909 
L 414.72 68.962909 
" clip-path="url(#pcc5b4b3053)" style="fill: none; stroke: #b0b0b0; stroke-width: 0.8; stroke-linecap: square"/>
     </g>
     <g id="line2d_38">
      <g>
       <use xlink:href="#m12e7d42c42" x="57.6" y="68.962909" style="stroke: #000000; stroke-width: 0.8"/>
      </g>
     </g>
     <g id="text_19">
      <!-- 0.8 -->
      <g transform="translate(34.696875 72.762128) scale(0.1 -0.1)">
       <use xlink:href="#DejaVuSans-30"/>
       <use xlink:href="#DejaVuSans-2e" x="63.623047"/>
       <use xlink:href="#DejaVuSans-38" x="95.410156"/>
      </g>
     </g>
    </g>
    <g id="ytick_10">
     <g id="line2d_39">
      <path d="M 57.6 57.966545 
L 414.72 57.966545 
" clip-path="url(#pcc5b4b3053)" style="fill: none; stroke: #b0b0b0; stroke-width: 0.8; stroke-linecap: square"/>
     </g>
     <g id="line2d_40">
      <g>
       <use xlink:href="#m12e7d42c42" x="57.6" y="57.966545" style="stroke: #000000; stroke-width: 0.8"/>
      </g>
     </g>
     <g id="text_20">
      <!-- 0.9 -->
      <g transform="translate(34.696875 61.765764) scale(0.1 -0.1)">
       <use xlink:href="#DejaVuSans-30"/>
       <use xlink:href="#DejaVuSans-2e" x="63.623047"/>
       <use xlink:href="#DejaVuSans-39" x="95.410156"/>
      </g>
     </g>
    </g>
    <g id="ytick_11">
     <g id="line2d_41">
      <path d="M 57.6 46.970182 
L 414.72 46.970182 
" clip-path="url(#pcc5b4b3053)" style="fill: none; stroke: #b0b0b0; stroke-width: 0.8; stroke-linecap: square"/>
     </g>
     <g id="line2d_42">
      <g>
       <use xlink:href="#m12e7d42c42" x="57.6" y="46.970182" style="stroke: #000000; stroke-width: 0.8"/>
      </g>
     </g>
     <g id="text_21">
      <!-- 1.0 -->
      <g transform="translate(34.696875 50.769401) scale(0.1 -0.1)">
       <use xlink:href="#DejaVuSans-31"/>
       <use xlink:href="#DejaVuSans-2e" x="63.623047"/>
       <use xlink:href="#DejaVuSans-30" x="95.410156"/>
      </g>
     </g>
    </g>
   </g>
   <g id="line2d_43">
    <path d="M 73.832727 156.933818 
L 145.978182 156.933818 
" clip-path="url(#pcc5b4b3053)" style="fill: none; stroke: #000080; stroke-width: 1.5; stroke-linecap: square"/>
   </g>
   <g id="line2d_44">
    <path d="M 145.978182 119.459881 
L 147.781818 119.027199 
L 149.585455 118.588886 
L 151.389091 118.145729 
L 153.192727 117.698571 
L 154.996364 117.248305 
L 156.8 116.79587 
L 158.603636 116.342248 
L 160.407273 115.888463 
L 162.210909 115.435567 
L 164.014545 114.984646 
L 165.818182 114.536805 
L 167.621818 114.093166 
L 169.425455 113.654863 
L 171.229091 113.223034 
L 173.032727 112.798814 
L 174.836364 112.383333 
L 176.64 111.977706 
L 178.443636 111.583029 
L 180.247273 111.200373 
L 182.050909 110.830781 
L 183.854545 110.475261 
L 185.658182 110.134783 
L 187.461818 109.810274 
L 189.265455 109.502617 
L 191.069091 109.212646 
L 192.872727 108.941147 
L 194.676364 108.68885 
L 196.48 108.456435 
L 198.283636 108.244525 
L 200.087273 108.053691 
L 201.890909 107.884448 
L 203.694545 107.737256 
L 205.498182 107.612523 
L 207.301818 107.510601 
L 209.105455 107.431794 
L 210.909091 107.376354 
L 212.712727 107.344485 
L 214.516364 107.336344 
L 216.32 107.352043 
L 218.123636 107.391651 
L 219.927273 107.455197 
L 221.730909 107.54267 
L 223.534545 107.654023 
L 225.338182 107.789173 
L 227.141818 107.948006 
L 228.945455 108.130374 
L 230.749091 108.336104 
L 232.552727 108.564993 
L 234.356364 108.816811 
L 236.16 109.091309 
L 237.963636 109.388209 
L 239.767273 109.707218 
L 241.570909 110.048018 
L 243.374545 110.410276 
L 245.178182 110.793638 
L 246.981818 111.197737 
L 248.785455 111.622186 
L 250.589091 112.066587 
L 252.392727 112.530525 
L 254.196364 113.013572 
L 256 113.515286 
L 257.803636 114.035214 
L 259.607273 114.572888 
L 261.410909 115.127831 
L 263.214545 115.699551 
L 265.018182 116.287546 
L 266.821818 116.891303 
L 268.625455 117.510298 
L 270.429091 118.143994 
L 272.232727 118.791846 
L 274.036364 119.453297 
L 275.84 120.127778 
L 277.643636 120.814712 
L 279.447273 121.513511 
L 281.250909 122.223577 
L 283.054545 122.944303 
L 284.858182 123.675071 
L 286.661818 124.415256 
L 288.465455 125.164224 
L 290.269091 125.921331 
L 292.072727 126.685927 
L 293.876364 127.457355 
L 295.68 128.234951 
L 297.483636 129.018045 
L 299.287273 129.805963 
L 301.090909 130.598025 
L 302.894545 131.39355 
L 304.698182 132.191851 
L 306.501818 132.992244 
L 308.305455 133.794041 
L 310.109091 134.596557 
L 311.912727 135.399108 
L 313.716364 136.201014 
L 315.52 137.001598 
L 317.323636 137.80019 
L 319.127273 138.596127 
L 320.930909 139.388753 
L 322.734545 140.177424 
L 324.538182 140.961504 
L 326.341818 156.922815 
" clip-path="url(#pcc5b4b3053)" style="fill: none; stroke: #000080; stroke-width: 1.5; stroke-linecap: square"/>
   </g>
   <g id="line2d_45">
    <path d="M 326.341818 156.933818 
L 398.487273 156.933818 
" clip-path="url(#pcc5b4b3053)" style="fill: none; stroke: #000080; stroke-width: 1.5; stroke-linecap: square"/>
   </g>
   <g id="patch_3">
    <path d="M 57.6 162.432 
L 57.6 41.472 
" style="fill: none; stroke: #000000; stroke-width: 0.8; stroke-linejoin: miter; stroke-linecap: square"/>
   </g>
   <g id="patch_4">
    <path d="M 414.72 162.432 
L 414.72 41.472 
" style="fill: none; stroke: #000000; stroke-width: 0.8; stroke-linejoin: miter; stroke-linecap: square"/>
   </g>
   <g id="patch_5">
    <path d="M 57.6 162.432 
L 414.72 162.432 
" style="fill: none; stroke: #000000; stroke-width: 0.8; stroke-linejoin: miter; stroke-linecap: square"/>
   </g>
   <g id="patch_6">
    <path d="M 57.6 41.472 
L 414.72 41.472 
" style="fill: none; stroke: #000000; stroke-width: 0.8; stroke-linejoin: miter; stroke-linecap: square"/>
   </g>
   <g id="legend_1">
    <g id="patch_7">
     <path d="M 357.62 64.150125 
L 407.72 64.150125 
Q 409.72 64.150125 409.72 62.150125 
L 409.72 48.472 
Q 409.72 46.472 407.72 46.472 
L 357.62 46.472 
Q 355.62 46.472 355.62 48.472 
L 355.62 62.150125 
Q 355.62 64.150125 357.62 64.150125 
z
" style="fill: #ffffff; opacity: 0.8; stroke: #cccccc; stroke-linejoin: miter"/>
    </g>
    <g id="line2d_46">
     <path d="M 359.62 54.570437 
L 369.62 54.570437 
L 379.62 54.570437 
" style="fill: none; stroke: #000080; stroke-width: 1.5; stroke-linecap: square"/>
    </g>
    <g id="text_22">
     <!-- $u(t)$ -->
     <g transform="translate(387.62 58.070437) scale(0.1 -0.1)">
      <defs>
       <path id="DejaVuSans-Oblique-75" d="M 428 1388 
L 838 3500 
L 1416 3500 
L 1006 1409 
Q 975 1256 961 1147 
Q 947 1038 947 966 
Q 947 700 1109 554 
Q 1272 409 1569 409 
Q 2031 409 2368 721 
Q 2706 1034 2809 1563 
L 3194 3500 
L 3769 3500 
L 3091 0 
L 2516 0 
L 2631 550 
Q 2388 244 2052 76 
Q 1716 -91 1338 -91 
Q 878 -91 622 161 
Q 366 413 366 863 
Q 366 956 381 1097 
Q 397 1238 428 1388 
z
" transform="scale(0.015625)"/>
       <path id="DejaVuSans-28" d="M 1984 4856 
Q 1566 4138 1362 3434 
Q 1159 2731 1159 2009 
Q 1159 1288 1364 580 
Q 1569 -128 1984 -844 
L 1484 -844 
Q 1016 -109 783 600 
Q 550 1309 550 2009 
Q 550 2706 781 3412 
Q 1013 4119 1484 4856 
L 1984 4856 
z
" transform="scale(0.015625)"/>
       <path id="DejaVuSans-Oblique-74" d="M 2706 3500 
L 2619 3053 
L 1472 3053 
L 1100 1153 
Q 1081 1047 1072 975 
Q 1063 903 1063 863 
Q 1063 663 1183 572 
Q 1303 481 1569 481 
L 2150 481 
L 2053 0 
L 1503 0 
Q 991 0 739 200 
Q 488 400 488 806 
Q 488 878 497 964 
Q 506 1050 525 1153 
L 897 3053 
L 409 3053 
L 500 3500 
L 978 3500 
L 1172 4494 
L 1747 4494 
L 1556 3500 
L 2706 3500 
z
" transform="scale(0.015625)"/>
       <path id="DejaVuSans-29" d="M 513 4856 
L 1013 4856 
Q 1481 4119 1714 3412 
Q 1947 2706 1947 2009 
Q 1947 1309 1714 600 
Q 1481 -109 1013 -844 
L 513 -844 
Q 928 -128 1133 580 
Q 1338 1288 1338 2009 
Q 1338 2731 1133 3434 
Q 928 4138 513 4856 
z
" transform="scale(0.015625)"/>
      </defs>
      <use xlink:href="#DejaVuSans-Oblique-75" transform="translate(0 0.125)"/>
      <use xlink:href="#DejaVuSans-28" transform="translate(63.378906 0.125)"/>
      <use xlink:href="#DejaVuSans-Oblique-74" transform="translate(102.392578 0.125)"/>
      <use xlink:href="#DejaVuSans-29" transform="translate(141.601562 0.125)"/>
     </g>
    </g>
   </g>
  </g>
  <g id="axes_2">
   <g id="patch_8">
    <path d="M 57.6 307.584 
L 414.72 307.584 
L 414.72 186.624 
L 57.6 186.624 
z
" style="fill: #ffffff"/>
   </g>
   <g id="matplotlib.axis_3">
    <g id="xtick_11">
     <g id="line2d_47">
      <path d="M 73.832727 307.584 
L 73.832727 186.624 
" clip-path="url(#p416405112f)" style="fill: none; stroke: #b0b0b0; stroke-width: 0.8; stroke-linecap: square"/>
     </g>
     <g id="line2d_48">
      <g>
       <use xlink:href="#mb2ce817092" x="73.832727" y="307.584" style="stroke: #000000; stroke-width: 0.8"/>
      </g>
     </g>
     <g id="text_23">
      <!-- 0 -->
      <g transform="translate(70.651477 322.182437) scale(0.1 -0.1)">
       <use xlink:href="#DejaVuSans-30"/>
      </g>
     </g>
    </g>
    <g id="xtick_12">
     <g id="line2d_49">
      <path d="M 109.905455 307.584 
L 109.905455 186.624 
" clip-path="url(#p416405112f)" style="fill: none; stroke: #b0b0b0; stroke-width: 0.8; stroke-linecap: square"/>
     </g>
     <g id="line2d_50">
      <g>
       <use xlink:href="#mb2ce817092" x="109.905455" y="307.584" style="stroke: #000000; stroke-width: 0.8"/>
      </g>
     </g>
     <g id="text_24">
      <!-- 1 -->
      <g transform="translate(106.724205 322.182437) scale(0.1 -0.1)">
       <use xlink:href="#DejaVuSans-31"/>
      </g>
     </g>
    </g>
    <g id="xtick_13">
     <g id="line2d_51">
      <path d="M 145.978182 307.584 
L 145.978182 186.624 
" clip-path="url(#p416405112f)" style="fill: none; stroke: #b0b0b0; stroke-width: 0.8; stroke-linecap: square"/>
     </g>
     <g id="line2d_52">
      <g>
       <use xlink:href="#mb2ce817092" x="145.978182" y="307.584" style="stroke: #000000; stroke-width: 0.8"/>
      </g>
     </g>
     <g id="text_25">
      <!-- 2 -->
      <g transform="translate(142.796932 322.182437) scale(0.1 -0.1)">
       <use xlink:href="#DejaVuSans-32"/>
      </g>
     </g>
    </g>
    <g id="xtick_14">
     <g id="line2d_53">
      <path d="M 182.050909 307.584 
L 182.050909 186.624 
" clip-path="url(#p416405112f)" style="fill: none; stroke: #b0b0b0; stroke-width: 0.8; stroke-linecap: square"/>
     </g>
     <g id="line2d_54">
      <g>
       <use xlink:href="#mb2ce817092" x="182.050909" y="307.584" style="stroke: #000000; stroke-width: 0.8"/>
      </g>
     </g>
     <g id="text_26">
      <!-- 3 -->
      <g transform="translate(178.869659 322.182437) scale(0.1 -0.1)">
       <use xlink:href="#DejaVuSans-33"/>
      </g>
     </g>
    </g>
    <g id="xtick_15">
     <g id="line2d_55">
      <path d="M 218.123636 307.584 
L 218.123636 186.624 
" clip-path="url(#p416405112f)" style="fill: none; stroke: #b0b0b0; stroke-width: 0.8; stroke-linecap: square"/>
     </g>
     <g id="line2d_56">
      <g>
       <use xlink:href="#mb2ce817092" x="218.123636" y="307.584" style="stroke: #000000; stroke-width: 0.8"/>
      </g>
     </g>
     <g id="text_27">
      <!-- 4 -->
      <g transform="translate(214.942386 322.182437) scale(0.1 -0.1)">
       <use xlink:href="#DejaVuSans-34"/>
      </g>
     </g>
    </g>
    <g id="xtick_16">
     <g id="line2d_57">
      <path d="M 254.196364 307.584 
L 254.196364 186.624 
" clip-path="url(#p416405112f)" style="fill: none; stroke: #b0b0b0; stroke-width: 0.8; stroke-linecap: square"/>
     </g>
     <g id="line2d_58">
      <g>
       <use xlink:href="#mb2ce817092" x="254.196364" y="307.584" style="stroke: #000000; stroke-width: 0.8"/>
      </g>
     </g>
     <g id="text_28">
      <!-- 5 -->
      <g transform="translate(251.015114 322.182437) scale(0.1 -0.1)">
       <use xlink:href="#DejaVuSans-35"/>
      </g>
     </g>
    </g>
    <g id="xtick_17">
     <g id="line2d_59">
      <path d="M 290.269091 307.584 
L 290.269091 186.624 
" clip-path="url(#p416405112f)" style="fill: none; stroke: #b0b0b0; stroke-width: 0.8; stroke-linecap: square"/>
     </g>
     <g id="line2d_60">
      <g>
       <use xlink:href="#mb2ce817092" x="290.269091" y="307.584" style="stroke: #000000; stroke-width: 0.8"/>
      </g>
     </g>
     <g id="text_29">
      <!-- 6 -->
      <g transform="translate(287.087841 322.182437) scale(0.1 -0.1)">
       <use xlink:href="#DejaVuSans-36"/>
      </g>
     </g>
    </g>
    <g id="xtick_18">
     <g id="line2d_61">
      <path d="M 326.341818 307.584 
L 326.341818 186.624 
" clip-path="url(#p416405112f)" style="fill: none; stroke: #b0b0b0; stroke-width: 0.8; stroke-linecap: square"/>
     </g>
     <g id="line2d_62">
      <g>
       <use xlink:href="#mb2ce817092" x="326.341818" y="307.584" style="stroke: #000000; stroke-width: 0.8"/>
      </g>
     </g>
     <g id="text_30">
      <!-- 7 -->
      <g transform="translate(323.160568 322.182437) scale(0.1 -0.1)">
       <use xlink:href="#DejaVuSans-37"/>
      </g>
     </g>
    </g>
    <g id="xtick_19">
     <g id="line2d_63">
      <path d="M 362.414545 307.584 
L 362.414545 186.624 
" clip-path="url(#p416405112f)" style="fill: none; stroke: #b0b0b0; stroke-width: 0.8; stroke-linecap: square"/>
     </g>
     <g id="line2d_64">
      <g>
       <use xlink:href="#mb2ce817092" x="362.414545" y="307.584" style="stroke: #000000; stroke-width: 0.8"/>
      </g>
     </g>
     <g id="text_31">
      <!-- 8 -->
      <g transform="translate(359.233295 322.182437) scale(0.1 -0.1)">
       <use xlink:href="#DejaVuSans-38"/>
      </g>
     </g>
    </g>
    <g id="xtick_20">
     <g id="line2d_65">
      <path d="M 398.487273 307.584 
L 398.487273 186.624 
" clip-path="url(#p416405112f)" style="fill: none; stroke: #b0b0b0; stroke-width: 0.8; stroke-linecap: square"/>
     </g>
     <g id="line2d_66">
      <g>
       <use xlink:href="#mb2ce817092" x="398.487273" y="307.584" style="stroke: #000000; stroke-width: 0.8"/>
      </g>
     </g>
     <g id="text_32">
      <!-- 9 -->
      <g transform="translate(395.306023 322.182437) scale(0.1 -0.1)">
       <use xlink:href="#DejaVuSans-39"/>
      </g>
     </g>
    </g>
   </g>
   <g id="matplotlib.axis_4">
    <g id="ytick_12">
     <g id="line2d_67">
      <path d="M 57.6 302.085818 
L 414.72 302.085818 
" clip-path="url(#p416405112f)" style="fill: none; stroke: #b0b0b0; stroke-width: 0.8; stroke-linecap: square"/>
     </g>
     <g id="line2d_68">
      <g>
       <use xlink:href="#m12e7d42c42" x="57.6" y="302.085818" style="stroke: #000000; stroke-width: 0.8"/>
      </g>
     </g>
     <g id="text_33">
      <!-- 0 -->
      <g transform="translate(44.2375 305.885037) scale(0.1 -0.1)">
       <use xlink:href="#DejaVuSans-30"/>
      </g>
     </g>
    </g>
    <g id="ytick_13">
     <g id="line2d_69">
      <path d="M 57.6 280.071076 
L 414.72 280.071076 
" clip-path="url(#p416405112f)" style="fill: none; stroke: #b0b0b0; stroke-width: 0.8; stroke-linecap: square"/>
     </g>
     <g id="line2d_70">
      <g>
       <use xlink:href="#m12e7d42c42" x="57.6" y="280.071076" style="stroke: #000000; stroke-width: 0.8"/>
      </g>
     </g>
     <g id="text_34">
      <!-- 200 -->
      <g transform="translate(31.5125 283.870295) scale(0.1 -0.1)">
       <use xlink:href="#DejaVuSans-32"/>
       <use xlink:href="#DejaVuSans-30" x="63.623047"/>
       <use xlink:href="#DejaVuSans-30" x="127.246094"/>
      </g>
     </g>
    </g>
    <g id="ytick_14">
     <g id="line2d_71">
      <path d="M 57.6 258.056334 
L 414.72 258.056334 
" clip-path="url(#p416405112f)" style="fill: none; stroke: #b0b0b0; stroke-width: 0.8; stroke-linecap: square"/>
     </g>
     <g id="line2d_72">
      <g>
       <use xlink:href="#m12e7d42c42" x="57.6" y="258.056334" style="stroke: #000000; stroke-width: 0.8"/>
      </g>
     </g>
     <g id="text_35">
      <!-- 400 -->
      <g transform="translate(31.5125 261.855553) scale(0.1 -0.1)">
       <use xlink:href="#DejaVuSans-34"/>
       <use xlink:href="#DejaVuSans-30" x="63.623047"/>
       <use xlink:href="#DejaVuSans-30" x="127.246094"/>
      </g>
     </g>
    </g>
    <g id="ytick_15">
     <g id="line2d_73">
      <path d="M 57.6 236.041592 
L 414.72 236.041592 
" clip-path="url(#p416405112f)" style="fill: none; stroke: #b0b0b0; stroke-width: 0.8; stroke-linecap: square"/>
     </g>
     <g id="line2d_74">
      <g>
       <use xlink:href="#m12e7d42c42" x="57.6" y="236.041592" style="stroke: #000000; stroke-width: 0.8"/>
      </g>
     </g>
     <g id="text_36">
      <!-- 600 -->
      <g transform="translate(31.5125 239.840811) scale(0.1 -0.1)">
       <use xlink:href="#DejaVuSans-36"/>
       <use xlink:href="#DejaVuSans-30" x="63.623047"/>
       <use xlink:href="#DejaVuSans-30" x="127.246094"/>
      </g>
     </g>
    </g>
    <g id="ytick_16">
     <g id="line2d_75">
      <path d="M 57.6 214.02685 
L 414.72 214.02685 
" clip-path="url(#p416405112f)" style="fill: none; stroke: #b0b0b0; stroke-width: 0.8; stroke-linecap: square"/>
     </g>
     <g id="line2d_76">
      <g>
       <use xlink:href="#m12e7d42c42" x="57.6" y="214.02685" style="stroke: #000000; stroke-width: 0.8"/>
      </g>
     </g>
     <g id="text_37">
      <!-- 800 -->
      <g transform="translate(31.5125 217.826069) scale(0.1 -0.1)">
       <use xlink:href="#DejaVuSans-38"/>
       <use xlink:href="#DejaVuSans-30" x="63.623047"/>
       <use xlink:href="#DejaVuSans-30" x="127.246094"/>
      </g>
     </g>
    </g>
    <g id="ytick_17">
     <g id="line2d_77">
      <path d="M 57.6 192.012108 
L 414.72 192.012108 
" clip-path="url(#p416405112f)" style="fill: none; stroke: #b0b0b0; stroke-width: 0.8; stroke-linecap: square"/>
     </g>
     <g id="line2d_78">
      <g>
       <use xlink:href="#m12e7d42c42" x="57.6" y="192.012108" style="stroke: #000000; stroke-width: 0.8"/>
      </g>
     </g>
     <g id="text_38">
      <!-- 1000 -->
      <g transform="translate(25.15 195.811327) scale(0.1 -0.1)">
       <use xlink:href="#DejaVuSans-31"/>
       <use xlink:href="#DejaVuSans-30" x="63.623047"/>
       <use xlink:href="#DejaVuSans-30" x="127.246094"/>
       <use xlink:href="#DejaVuSans-30" x="190.869141"/>
      </g>
     </g>
    </g>
   </g>
   <g id="line2d_79">
    <path d="M 73.832727 192.122182 
L 74.594221 192.129294 
L 79.341405 192.181067 
L 84.161405 192.249526 
L 88.771437 192.334411 
L 93.178539 192.438377 
L 97.408877 192.564836 
L 101.486783 192.717825 
L 105.433852 192.902093 
L 109.269417 193.123253 
L 113.011029 193.38796 
L 116.674879 193.704136 
L 120.276181 194.081254 
L 123.829554 194.530697 
L 127.349423 195.06622 
L 130.85048 195.704559 
L 134.348251 196.466254 
L 137.859833 197.376784 
L 141.404952 198.468196 
L 145.007543 199.781551 
L 145.978182 200.17433 
" clip-path="url(#p416405112f)" style="fill: none; stroke: #0000cd; stroke-width: 1.5; stroke-linecap: square"/>
   </g>
   <g id="line2d_80">
    <path d="M 73.832727 301.975744 
L 74.594221 301.971005 
L 79.341405 301.936512 
L 84.161405 301.890916 
L 88.771437 301.834397 
L 93.178539 301.765205 
L 97.408877 301.681087 
L 101.486783 301.579388 
L 105.433852 301.456991 
L 109.269417 301.310227 
L 113.011029 301.134764 
L 116.674879 300.92547 
L 120.276181 300.676243 
L 123.829554 300.379803 
L 127.349423 300.027424 
L 130.85048 299.608592 
L 134.348251 299.110553 
L 137.859833 298.517704 
L 141.404952 297.810743 
L 145.007543 296.965422 
L 145.978182 296.713784 
" clip-path="url(#p416405112f)" style="fill: none; stroke: #ff0000; stroke-width: 1.5; stroke-linecap: square"/>
   </g>
   <g id="line2d_81">
    <path d="M 73.832727 302.085818 
L 74.594221 302.083445 
L 79.341405 302.066165 
L 84.161405 302.043303 
L 88.771437 302.014936 
L 93.178539 301.980162 
L 97.408877 301.937821 
L 101.486783 301.886532 
L 105.433852 301.82466 
L 109.269417 301.750264 
L 113.011029 301.66102 
L 116.674879 301.554139 
L 120.276181 301.426247 
L 123.829554 301.273244 
L 127.349423 301.0901 
L 130.85048 300.870593 
L 134.348251 300.606937 
L 137.859833 300.289256 
L 141.404952 299.904806 
L 145.007543 299.436772 
L 145.978182 299.295631 
" clip-path="url(#p416405112f)" style="fill: none; stroke: #008000; stroke-width: 1.5; stroke-linecap: square"/>
   </g>
   <g id="line2d_82">
    <path d="M 145.978182 200.17433 
L 147.781818 200.675145 
L 149.585455 201.191127 
L 151.389091 201.722048 
L 153.192727 202.267628 
L 154.996364 202.827544 
L 156.8 203.401424 
L 158.603636 203.988854 
L 160.407273 204.589378 
L 162.210909 205.202502 
L 164.014545 205.827698 
L 165.818182 206.464408 
L 167.621818 207.112046 
L 169.425455 207.770005 
L 171.229091 208.437659 
L 173.032727 209.114369 
L 174.836364 209.799489 
L 176.64 210.492365 
L 178.443636 211.192346 
L 180.247273 211.898785 
L 182.050909 212.611042 
L 183.854545 213.328489 
L 185.658182 214.050514 
L 187.461818 214.776523 
L 189.265455 215.505942 
L 191.069091 216.238223 
L 192.872727 216.972839 
L 194.676364 217.709293 
L 196.48 218.447114 
L 198.283636 219.185861 
L 200.087273 219.92512 
L 201.890909 220.66451 
L 203.694545 221.403675 
L 205.498182 222.142291 
L 207.301818 222.88006 
L 209.105455 223.616712 
L 210.909091 224.352005 
L 212.712727 225.085719 
L 214.516364 225.81766 
L 216.32 226.547657 
L 218.123636 227.27556 
L 219.927273 228.001236 
L 221.730909 228.724575 
L 223.534545 229.44548 
L 225.338182 230.163871 
L 227.141818 230.87968 
L 228.945455 231.592853 
L 230.749091 232.303347 
L 232.552727 233.011128 
L 234.356364 233.716169 
L 236.16 234.418452 
L 237.963636 235.117965 
L 239.767273 235.814698 
L 241.570909 236.508647 
L 243.374545 237.19981 
L 245.178182 237.888186 
L 246.981818 238.573777 
L 248.785455 239.256583 
L 250.589091 239.936604 
L 252.392727 240.613837 
L 254.196364 241.288281 
L 256 241.959928 
L 257.803636 242.628771 
L 259.607273 243.294795 
L 261.410909 243.957985 
L 263.214545 244.618319 
L 265.018182 245.275773 
L 266.821818 245.930316 
L 268.625455 246.581913 
L 270.429091 247.230522 
L 272.232727 247.876097 
L 274.036364 248.518587 
L 275.84 249.157935 
L 277.643636 249.794076 
L 279.447273 250.426943 
L 281.250909 251.056461 
L 283.054545 251.682551 
L 284.858182 252.305126 
L 286.661818 252.924097 
L 288.465455 253.539367 
L 290.269091 254.150836 
L 292.072727 254.758399 
L 293.876364 255.361946 
L 295.68 255.961364 
L 297.483636 256.556535 
L 299.287273 257.147337 
L 301.090909 257.733648 
L 302.894545 258.31534 
L 304.698182 258.892285 
L 306.501818 259.464353 
L 308.305455 260.031411 
L 310.109091 260.593327 
L 311.912727 261.149967 
L 313.716364 261.7012 
L 315.52 262.246891 
L 317.323636 262.786912 
L 319.127273 263.321131 
L 320.930909 263.849421 
L 322.734545 264.371658 
L 324.538182 264.887721 
L 326.341818 265.397489 
" clip-path="url(#p416405112f)" style="fill: none; stroke: #0000cd; stroke-width: 1.5; stroke-linecap: square"/>
   </g>
   <g id="line2d_83">
    <path d="M 145.978182 296.713784 
L 147.781818 296.48715 
L 149.585455 296.256778 
L 151.389091 296.023073 
L 153.192727 295.786468 
L 154.996364 295.547424 
L 156.8 295.306421 
L 158.603636 295.06396 
L 160.407273 294.820556 
L 162.210909 294.576738 
L 164.014545 294.333041 
L 165.818182 294.090004 
L 167.621818 293.848167 
L 169.425455 293.608063 
L 171.229091 293.370219 
L 173.032727 293.135147 
L 174.836364 292.903344 
L 176.64 292.675287 
L 178.443636 292.451429 
L 180.247273 292.232196 
L 182.050909 292.017988 
L 183.854545 291.80917 
L 185.658182 291.606077 
L 187.461818 291.40901 
L 189.265455 291.218233 
L 191.069091 291.033976 
L 192.872727 290.856433 
L 194.676364 290.685762 
L 196.48 290.522086 
L 198.283636 290.365495 
L 200.087273 290.216046 
L 201.890909 290.073763 
L 203.694545 289.938643 
L 205.498182 289.810653 
L 207.301818 289.689735 
L 209.105455 289.575807 
L 210.909091 289.468766 
L 212.712727 289.368488 
L 214.516364 289.274833 
L 216.32 289.187645 
L 218.123636 289.106754 
L 219.927273 289.031983 
L 221.730909 288.963141 
L 223.534545 288.900032 
L 225.338182 288.842457 
L 227.141818 288.790209 
L 228.945455 288.743082 
L 230.749091 288.700868 
L 232.552727 288.663362 
L 234.356364 288.630358 
L 236.16 288.601655 
L 237.963636 288.577056 
L 239.767273 288.556369 
L 241.570909 288.539408 
L 243.374545 288.525993 
L 245.178182 288.51595 
L 246.981818 288.509116 
L 248.785455 288.505333 
L 250.589091 288.504451 
L 252.392727 288.506332 
L 254.196364 288.510844 
L 256 288.517863 
L 257.803636 288.527278 
L 259.607273 288.538982 
L 261.410909 288.552881 
L 263.214545 288.568888 
L 265.018182 288.586924 
L 266.821818 288.606922 
L 268.625455 288.628818 
L 270.429091 288.652561 
L 272.232727 288.678105 
L 274.036364 288.705414 
L 275.84 288.734457 
L 277.643636 288.765211 
L 279.447273 288.797659 
L 281.250909 288.831792 
L 283.054545 288.867605 
L 284.858182 288.905099 
L 286.661818 288.944281 
L 288.465455 288.985162 
L 290.269091 289.027757 
L 292.072727 289.072085 
L 293.876364 289.118168 
L 295.68 289.166032 
L 297.483636 289.215705 
L 299.287273 289.267215 
L 301.090909 289.320595 
L 302.894545 289.375876 
L 304.698182 289.433091 
L 306.501818 289.492273 
L 308.305455 289.553456 
L 310.109091 289.616669 
L 311.912727 289.681946 
L 313.716364 289.749313 
L 315.52 289.818798 
L 317.323636 289.890427 
L 319.127273 289.96422 
L 320.930909 290.040196 
L 322.734545 290.11837 
L 324.538182 290.198754 
L 326.341818 290.281356 
" clip-path="url(#p416405112f)" style="fill: none; stroke: #ff0000; stroke-width: 1.5; stroke-linecap: square"/>
   </g>
   <g id="line2d_84">
    <path d="M 145.978182 299.295631 
L 147.781818 299.021449 
L 149.585455 298.735839 
L 151.389091 298.438624 
L 153.192727 298.129648 
L 154.996364 297.808776 
L 156.8 297.475899 
L 158.603636 297.13093 
L 160.407273 296.77381 
L 162.210909 296.404505 
L 164.014545 296.023006 
L 165.818182 295.629333 
L 167.621818 295.223532 
L 169.425455 294.805677 
L 171.229091 294.375867 
L 173.032727 293.934228 
L 174.836364 293.480912 
L 176.64 293.016092 
L 178.443636 292.539969 
L 180.247273 292.052763 
L 182.050909 291.554715 
L 183.854545 291.046086 
L 185.658182 290.527154 
L 187.461818 289.998212 
L 189.265455 289.459569 
L 191.069091 288.911546 
L 192.872727 288.354473 
L 194.676364 287.78869 
L 196.48 287.214545 
L 198.283636 286.632389 
L 200.087273 286.042579 
L 201.890909 285.445472 
L 203.694545 284.841426 
L 205.498182 284.230801 
L 207.301818 283.613949 
L 209.105455 282.991225 
L 210.909091 282.362974 
L 212.712727 281.729538 
L 214.516364 281.091252 
L 216.32 280.448443 
L 218.123636 279.80143 
L 219.927273 279.150525 
L 221.730909 278.496029 
L 223.534545 277.838232 
L 225.338182 277.177417 
L 227.141818 276.513856 
L 228.945455 275.84781 
L 230.749091 275.179529 
L 232.552727 274.509255 
L 234.356364 273.837218 
L 236.16 273.163637 
L 237.963636 272.488724 
L 239.767273 271.812677 
L 241.570909 271.13569 
L 243.374545 270.457942 
L 245.178182 269.779608 
L 246.981818 269.100851 
L 248.785455 268.421829 
L 250.589091 267.742689 
L 252.392727 267.063575 
L 254.196364 266.38462 
L 256 265.705953 
L 257.803636 265.027696 
L 259.607273 264.349968 
L 261.410909 263.672879 
L 263.214545 262.996537 
L 265.018182 262.321047 
L 266.821818 261.646507 
L 268.625455 260.973014 
L 270.429091 260.300662 
L 272.232727 259.629542 
L 274.036364 258.959743 
L 275.84 258.291353 
L 277.643636 257.624458 
L 279.447273 256.959142 
L 281.250909 256.295491 
L 283.054545 255.633589 
L 284.858182 254.973519 
L 286.661818 254.315366 
L 288.465455 253.659215 
L 290.269091 253.005151 
L 292.072727 252.35326 
L 293.876364 251.70363 
L 295.68 251.056348 
L 297.483636 250.411505 
L 299.287273 249.769192 
L 301.090909 249.129502 
L 302.894545 248.492529 
L 304.698182 247.858368 
L 306.501818 247.227118 
L 308.305455 246.598878 
L 310.109091 245.973748 
L 311.912727 245.351832 
L 313.716364 244.733232 
L 315.52 244.118055 
L 317.323636 243.506406 
L 319.127273 242.898394 
L 320.930909 242.294127 
L 322.734545 241.693716 
L 324.538182 241.097269 
L 326.341818 240.504899 
" clip-path="url(#p416405112f)" style="fill: none; stroke: #008000; stroke-width: 1.5; stroke-linecap: square"/>
   </g>
   <g id="line2d_85">
    <path d="M 326.341818 265.397489 
L 327.12254 265.652059 
L 334.929753 268.094907 
L 346.287909 271.29217 
L 359.011951 274.356696 
L 371.46691 276.851946 
L 383.921868 278.901334 
L 395.875466 280.508057 
L 398.487273 280.817876 
" clip-path="url(#p416405112f)" style="fill: none; stroke: #0000cd; stroke-width: 1.5; stroke-linecap: square"/>
   </g>
   <g id="line2d_86">
    <path d="M 326.341818 290.281356 
L 327.12254 290.282264 
L 334.929753 290.385884 
L 346.287909 290.813155 
L 359.011951 291.594797 
L 371.46691 292.559383 
L 383.921868 293.617887 
L 395.875466 294.646331 
L 398.487273 294.867153 
" clip-path="url(#p416405112f)" style="fill: none; stroke: #ff0000; stroke-width: 1.5; stroke-linecap: square"/>
   </g>
   <g id="line2d_87">
    <path d="M 326.341818 240.504899 
L 327.12254 240.249422 
L 334.929753 237.702954 
L 346.287909 234.078419 
L 359.011951 230.232252 
L 371.46691 226.772416 
L 383.921868 223.664524 
L 395.875466 221.029356 
L 398.487273 220.498716 
" clip-path="url(#p416405112f)" style="fill: none; stroke: #008000; stroke-width: 1.5; stroke-linecap: square"/>
   </g>
   <g id="line2d_88">
    <path d="M 57.6 265.394581 
L 414.72 265.394581 
" clip-path="url(#p416405112f)" style="fill: none; stroke-dasharray: 1.5,2.475; stroke-dashoffset: 0; stroke: #000000; stroke-width: 1.5"/>
   </g>
   <g id="patch_9">
    <path d="M 57.6 307.584 
L 57.6 186.624 
" style="fill: none; stroke: #000000; stroke-width: 0.8; stroke-linejoin: miter; stroke-linecap: square"/>
   </g>
   <g id="patch_10">
    <path d="M 414.72 307.584 
L 414.72 186.624 
" style="fill: none; stroke: #000000; stroke-width: 0.8; stroke-linejoin: miter; stroke-linecap: square"/>
   </g>
   <g id="patch_11">
    <path d="M 57.6 307.584 
L 414.72 307.584 
" style="fill: none; stroke: #000000; stroke-width: 0.8; stroke-linejoin: miter; stroke-linecap: square"/>
   </g>
   <g id="patch_12">
    <path d="M 57.6 186.624 
L 414.72 186.624 
" style="fill: none; stroke: #000000; stroke-width: 0.8; stroke-linejoin: miter; stroke-linecap: square"/>
   </g>
   <g id="legend_2">
    <g id="patch_13">
     <path d="M 64.6 277.96025 
L 115.3 277.96025 
Q 117.3 277.96025 117.3 275.96025 
L 117.3 218.24775 
Q 117.3 216.24775 115.3 216.24775 
L 64.6 216.24775 
Q 62.6 216.24775 62.6 218.24775 
L 62.6 275.96025 
Q 62.6 277.96025 64.6 277.96025 
z
" style="fill: #ffffff; opacity: 0.8; stroke: #cccccc; stroke-linejoin: miter"/>
    </g>
    <g id="line2d_89">
     <path d="M 66.6 224.346187 
L 76.6 224.346187 
L 86.6 224.346187 
" style="fill: none; stroke: #0000cd; stroke-width: 1.5; stroke-linecap: square"/>
    </g>
    <g id="text_39">
     <!-- $S(t)$ -->
     <g transform="translate(94.6 227.846187) scale(0.1 -0.1)">
      <defs>
       <path id="DejaVuSans-Oblique-53" d="M 3859 4513 
L 3738 3897 
Q 3422 4066 3111 4152 
Q 2800 4238 2509 4238 
Q 1944 4238 1609 3991 
Q 1275 3744 1275 3334 
Q 1275 3109 1398 2989 
Q 1522 2869 2034 2731 
L 2413 2638 
Q 3053 2472 3303 2217 
Q 3553 1963 3553 1503 
Q 3553 797 2998 353 
Q 2444 -91 1538 -91 
Q 1166 -91 791 -17 
Q 416 56 38 206 
L 166 856 
Q 513 641 861 531 
Q 1209 422 1556 422 
Q 2147 422 2503 684 
Q 2859 947 2859 1369 
Q 2859 1650 2717 1795 
Q 2575 1941 2106 2059 
L 1728 2156 
Q 1081 2325 845 2545 
Q 609 2766 609 3163 
Q 609 3859 1145 4304 
Q 1681 4750 2541 4750 
Q 2875 4750 3203 4690 
Q 3531 4631 3859 4513 
z
" transform="scale(0.015625)"/>
      </defs>
      <use xlink:href="#DejaVuSans-Oblique-53" transform="translate(0 0.125)"/>
      <use xlink:href="#DejaVuSans-28" transform="translate(63.476562 0.125)"/>
      <use xlink:href="#DejaVuSans-Oblique-74" transform="translate(102.490234 0.125)"/>
      <use xlink:href="#DejaVuSans-29" transform="translate(141.699219 0.125)"/>
     </g>
    </g>
    <g id="line2d_90">
     <path d="M 66.6 239.024312 
L 76.6 239.024312 
L 86.6 239.024312 
" style="fill: none; stroke: #ff0000; stroke-width: 1.5; stroke-linecap: square"/>
    </g>
    <g id="text_40">
     <!-- $I(t)$ -->
     <g transform="translate(94.6 242.524312) scale(0.1 -0.1)">
      <defs>
       <path id="DejaVuSans-Oblique-49" d="M 1081 4666 
L 1716 4666 
L 806 0 
L 172 0 
L 1081 4666 
z
" transform="scale(0.015625)"/>
      </defs>
      <use xlink:href="#DejaVuSans-Oblique-49" transform="translate(0 0.125)"/>
      <use xlink:href="#DejaVuSans-28" transform="translate(29.492188 0.125)"/>
      <use xlink:href="#DejaVuSans-Oblique-74" transform="translate(68.505859 0.125)"/>
      <use xlink:href="#DejaVuSans-29" transform="translate(107.714844 0.125)"/>
     </g>
    </g>
    <g id="line2d_91">
     <path d="M 66.6 253.702437 
L 76.6 253.702437 
L 86.6 253.702437 
" style="fill: none; stroke: #008000; stroke-width: 1.5; stroke-linecap: square"/>
    </g>
    <g id="text_41">
     <!-- $R(t)$ -->
     <g transform="translate(94.6 257.202437) scale(0.1 -0.1)">
      <defs>
       <path id="DejaVuSans-Oblique-52" d="M 1613 4147 
L 1294 2491 
L 2106 2491 
Q 2584 2491 2879 2755 
Q 3175 3019 3175 3444 
Q 3175 3784 2976 3965 
Q 2778 4147 2406 4147 
L 1613 4147 
z
M 2772 2241 
Q 2972 2194 3105 2009 
Q 3238 1825 3413 1275 
L 3809 0 
L 3144 0 
L 2778 1197 
Q 2638 1659 2453 1815 
Q 2269 1972 1888 1972 
L 1191 1972 
L 806 0 
L 172 0 
L 1081 4666 
L 2503 4666 
Q 3150 4666 3495 4373 
Q 3841 4081 3841 3531 
Q 3841 3044 3547 2687 
Q 3253 2331 2772 2241 
z
" transform="scale(0.015625)"/>
      </defs>
      <use xlink:href="#DejaVuSans-Oblique-52" transform="translate(0 0.125)"/>
      <use xlink:href="#DejaVuSans-28" transform="translate(69.482422 0.125)"/>
      <use xlink:href="#DejaVuSans-Oblique-74" transform="translate(108.496094 0.125)"/>
      <use xlink:href="#DejaVuSans-29" transform="translate(147.705078 0.125)"/>
     </g>
    </g>
    <g id="line2d_92">
     <path d="M 66.6 268.380562 
L 76.6 268.380562 
L 86.6 268.380562 
" style="fill: none; stroke-dasharray: 1.5,2.475; stroke-dashoffset: 0; stroke: #000000; stroke-width: 1.5"/>
    </g>
    <g id="text_42">
     <!-- $S^\ast$ -->
     <g transform="translate(94.6 271.880562) scale(0.1 -0.1)">
      <defs>
       <path id="DejaVuSans-2217" d="M 2153 2006 
L 816 2778 
L 1081 3238 
L 2419 2466 
L 2419 4013 
L 2944 4013 
L 2944 2466 
L 4281 3238 
L 4547 2778 
L 3209 2006 
L 4547 1234 
L 4281 775 
L 2944 1547 
L 2944 0 
L 2419 0 
L 2419 1547 
L 1081 775 
L 816 1234 
L 2153 2006 
z
" transform="scale(0.015625)"/>
      </defs>
      <use xlink:href="#DejaVuSans-Oblique-53" transform="translate(0 0.826562)"/>
      <use xlink:href="#DejaVuSans-2217" transform="translate(84.314779 39.107812) scale(0.7)"/>
     </g>
    </g>
   </g>
  </g>
 </g>
 <defs>
  <clipPath id="pcc5b4b3053">
   <rect x="57.6" y="41.472" width="357.12" height="120.96"/>
  </clipPath>
  <clipPath id="p416405112f">
   <rect x="57.6" y="186.624" width="357.12" height="120.96"/>
  </clipPath>
 </defs>
</svg>
