<?xml version="1.0" encoding="utf-8" standalone="no"?>
<!DOCTYPE svg PUBLIC "-//W3C//DTD SVG 1.1//EN"
  "http://www.w3.org/Graphics/SVG/1.1/DTD/svg11.dtd">
<svg xmlns:xlink="http://www.w3.org/1999/xlink" width="460.8pt" height="345.6pt" viewBox="0 0 460.8 345.6" xmlns="http://www.w3.org/2000/svg" version="1.1">
 <metadata>
  <rdf:RDF xmlns:dc="http://purl.org/dc/elements/1.1/" xmlns:cc="http://creativecommons.org/ns#" xmlns:rdf="http://www.w3.org/1999/02/22-rdf-syntax-ns#">
   <cc:Work>
    <dc:type rdf:resource="http://purl.org/dc/dcmitype/StillImage"/>
    <dc:date>2025-08-11T16:51:36.986406</dc:date>
    <dc:format>image/svg+xml</dc:format>
    <dc:creator>
     <cc:Agent>
      <dc:title>Matplotlib v3.7.2, https://matplotlib.org/</dc:title>
     </cc:Agent>
    </dc:creator>
   </cc:Work>
  </rdf:RDF>
 </metadata>
 <defs>
  <style type="text/css">*{stroke-linejoin: round; stroke-linecap: butt}</style>
 </defs>
 <g id="figure_1">
  <g id="patch_1">
   <path d="M 0 345.6 
L 460.8 345.6 
L 460.8 0 
L 0 0 
z
" style="fill: #ffffff"/>
  </g>
  <g id="axes_1">
   <g id="patch_2">
    <path d="M 57.6 307.584 
L 414.72 307.584 
L 414.72 41.472 
L 57.6 41.472 
z
" style="fill: #ffffff"/>
   </g>
   <g id="matplotlib.axis_1">
    <g id="xtick_1">
     <g id="line2d_1">
      <path d="M 73.832727 307.584 
L 73.832727 41.472 
" clip-path="url(#p0e3b9b04f0)" style="fill: none; stroke: #b0b0b0; stroke-width: 0.8; stroke-linecap: square"/>
     </g>
     <g id="line2d_2">
      <defs>
       <path id="md31cc88904" d="M 0 0 
L 0 3.5 
" style="stroke: #000000; stroke-width: 0.8"/>
      </defs>
      <g>
       <use xlink:href="#md31cc88904" x="73.832727" y="307.584" style="stroke: #000000; stroke-width: 0.8"/>
      </g>
     </g>
     <g id="text_1">
      <!-- 0 -->
      <g transform="translate(70.651477 322.182437) scale(0.1 -0.1)">
       <defs>
        <path id="DejaVuSans-30" d="M 2034 4250 
Q 1547 4250 1301 3770 
Q 1056 3291 1056 2328 
Q 1056 1369 1301 889 
Q 1547 409 2034 409 
Q 2525 409 2770 889 
Q 3016 1369 3016 2328 
Q 3016 3291 2770 3770 
Q 2525 4250 2034 4250 
z
M 2034 4750 
Q 2819 4750 3233 4129 
Q 3647 3509 3647 2328 
Q 3647 1150 3233 529 
Q 2819 -91 2034 -91 
Q 1250 -91 836 529 
Q 422 1150 422 2328 
Q 422 3509 836 4129 
Q 1250 4750 2034 4750 
z
" transform="scale(0.015625)"/>
       </defs>
       <use xlink:href="#DejaVuSans-30"/>
      </g>
     </g>
    </g>
    <g id="xtick_2">
     <g id="line2d_3">
      <path d="M 100.887273 307.584 
L 100.887273 41.472 
" clip-path="url(#p0e3b9b04f0)" style="fill: none; stroke: #b0b0b0; stroke-width: 0.8; stroke-linecap: square"/>
     </g>
     <g id="line2d_4">
      <g>
       <use xlink:href="#md31cc88904" x="100.887273" y="307.584" style="stroke: #000000; stroke-width: 0.8"/>
      </g>
     </g>
     <g id="text_2">
      <!-- 1 -->
      <g transform="translate(97.706023 322.182437) scale(0.1 -0.1)">
       <defs>
        <path id="DejaVuSans-31" d="M 794 531 
L 1825 531 
L 1825 4091 
L 703 3866 
L 703 4441 
L 1819 4666 
L 2450 4666 
L 2450 531 
L 3481 531 
L 3481 0 
L 794 0 
L 794 531 
z
" transform="scale(0.015625)"/>
       </defs>
       <use xlink:href="#DejaVuSans-31"/>
      </g>
     </g>
    </g>
    <g id="xtick_3">
     <g id="line2d_5">
      <path d="M 127.941818 307.584 
L 127.941818 41.472 
" clip-path="url(#p0e3b9b04f0)" style="fill: none; stroke: #b0b0b0; stroke-width: 0.8; stroke-linecap: square"/>
     </g>
     <g id="line2d_6">
      <g>
       <use xlink:href="#md31cc88904" x="127.941818" y="307.584" style="stroke: #000000; stroke-width: 0.8"/>
      </g>
     </g>
     <g id="text_3">
      <!-- 2 -->
      <g transform="translate(124.760568 322.182437) scale(0.1 -0.1)">
       <defs>
        <path id="DejaVuSans-32" d="M 1228 531 
L 3431 531 
L 3431 0 
L 469 0 
L 469 531 
Q 828 903 1448 1529 
Q 2069 2156 2228 2338 
Q 2531 2678 2651 2914 
Q 2772 3150 2772 3378 
Q 2772 3750 2511 3984 
Q 2250 4219 1831 4219 
Q 1534 4219 1204 4116 
Q 875 4013 500 3803 
L 500 4441 
Q 881 4594 1212 4672 
Q 1544 4750 1819 4750 
Q 2544 4750 2975 4387 
Q 3406 4025 3406 3419 
Q 3406 3131 3298 2873 
Q 3191 2616 2906 2266 
Q 2828 2175 2409 1742 
Q 1991 1309 1228 531 
z
" transform="scale(0.015625)"/>
       </defs>
       <use xlink:href="#DejaVuSans-32"/>
      </g>
     </g>
    </g>
    <g id="xtick_4">
     <g id="line2d_7">
      <path d="M 154.996364 307.584 
L 154.996364 41.472 
" clip-path="url(#p0e3b9b04f0)" style="fill: none; stroke: #b0b0b0; stroke-width: 0.8; stroke-linecap: square"/>
     </g>
     <g id="line2d_8">
      <g>
       <use xlink:href="#md31cc88904" x="154.996364" y="307.584" style="stroke: #000000; stroke-width: 0.8"/>
      </g>
     </g>
     <g id="text_4">
      <!-- 3 -->
      <g transform="translate(151.815114 322.182437) scale(0.1 -0.1)">
       <defs>
        <path id="DejaVuSans-33" d="M 2597 2516 
Q 3050 2419 3304 2112 
Q 3559 1806 3559 1356 
Q 3559 666 3084 287 
Q 2609 -91 1734 -91 
Q 1441 -91 1130 -33 
Q 819 25 488 141 
L 488 750 
Q 750 597 1062 519 
Q 1375 441 1716 441 
Q 2309 441 2620 675 
Q 2931 909 2931 1356 
Q 2931 1769 2642 2001 
Q 2353 2234 1838 2234 
L 1294 2234 
L 1294 2753 
L 1863 2753 
Q 2328 2753 2575 2939 
Q 2822 3125 2822 3475 
Q 2822 3834 2567 4026 
Q 2313 4219 1838 4219 
Q 1578 4219 1281 4162 
Q 984 4106 628 3988 
L 628 4550 
Q 988 4650 1302 4700 
Q 1616 4750 1894 4750 
Q 2613 4750 3031 4423 
Q 3450 4097 3450 3541 
Q 3450 3153 3228 2886 
Q 3006 2619 2597 2516 
z
" transform="scale(0.015625)"/>
       </defs>
       <use xlink:href="#DejaVuSans-33"/>
      </g>
     </g>
    </g>
    <g id="xtick_5">
     <g id="line2d_9">
      <path d="M 182.050909 307.584 
L 182.050909 41.472 
" clip-path="url(#p0e3b9b04f0)" style="fill: none; stroke: #b0b0b0; stroke-width: 0.8; stroke-linecap: square"/>
     </g>
     <g id="line2d_10">
      <g>
       <use xlink:href="#md31cc88904" x="182.050909" y="307.584" style="stroke: #000000; stroke-width: 0.8"/>
      </g>
     </g>
     <g id="text_5">
      <!-- 4 -->
      <g transform="translate(178.869659 322.182437) scale(0.1 -0.1)">
       <defs>
        <path id="DejaVuSans-34" d="M 2419 4116 
L 825 1625 
L 2419 1625 
L 2419 4116 
z
M 2253 4666 
L 3047 4666 
L 3047 1625 
L 3713 1625 
L 3713 1100 
L 3047 1100 
L 3047 0 
L 2419 0 
L 2419 1100 
L 313 1100 
L 313 1709 
L 2253 4666 
z
" transform="scale(0.015625)"/>
       </defs>
       <use xlink:href="#DejaVuSans-34"/>
      </g>
     </g>
    </g>
    <g id="xtick_6">
     <g id="line2d_11">
      <path d="M 209.105455 307.584 
L 209.105455 41.472 
" clip-path="url(#p0e3b9b04f0)" style="fill: none; stroke: #b0b0b0; stroke-width: 0.8; stroke-linecap: square"/>
     </g>
     <g id="line2d_12">
      <g>
       <use xlink:href="#md31cc88904" x="209.105455" y="307.584" style="stroke: #000000; stroke-width: 0.8"/>
      </g>
     </g>
     <g id="text_6">
      <!-- 5 -->
      <g transform="translate(205.924205 322.182437) scale(0.1 -0.1)">
       <defs>
        <path id="DejaVuSans-35" d="M 691 4666 
L 3169 4666 
L 3169 4134 
L 1269 4134 
L 1269 2991 
Q 1406 3038 1543 3061 
Q 1681 3084 1819 3084 
Q 2600 3084 3056 2656 
Q 3513 2228 3513 1497 
Q 3513 744 3044 326 
Q 2575 -91 1722 -91 
Q 1428 -91 1123 -41 
Q 819 9 494 109 
L 494 744 
Q 775 591 1075 516 
Q 1375 441 1709 441 
Q 2250 441 2565 725 
Q 2881 1009 2881 1497 
Q 2881 1984 2565 2268 
Q 2250 2553 1709 2553 
Q 1456 2553 1204 2497 
Q 953 2441 691 2322 
L 691 4666 
z
" transform="scale(0.015625)"/>
       </defs>
       <use xlink:href="#DejaVuSans-35"/>
      </g>
     </g>
    </g>
    <g id="xtick_7">
     <g id="line2d_13">
      <path d="M 236.16 307.584 
L 236.16 41.472 
" clip-path="url(#p0e3b9b04f0)" style="fill: none; stroke: #b0b0b0; stroke-width: 0.8; stroke-linecap: square"/>
     </g>
     <g id="line2d_14">
      <g>
       <use xlink:href="#md31cc88904" x="236.16" y="307.584" style="stroke: #000000; stroke-width: 0.8"/>
      </g>
     </g>
     <g id="text_7">
      <!-- 6 -->
      <g transform="translate(232.97875 322.182437) scale(0.1 -0.1)">
       <defs>
        <path id="DejaVuSans-36" d="M 2113 2584 
Q 1688 2584 1439 2293 
Q 1191 2003 1191 1497 
Q 1191 994 1439 701 
Q 1688 409 2113 409 
Q 2538 409 2786 701 
Q 3034 994 3034 1497 
Q 3034 2003 2786 2293 
Q 2538 2584 2113 2584 
z
M 3366 4563 
L 3366 3988 
Q 3128 4100 2886 4159 
Q 2644 4219 2406 4219 
Q 1781 4219 1451 3797 
Q 1122 3375 1075 2522 
Q 1259 2794 1537 2939 
Q 1816 3084 2150 3084 
Q 2853 3084 3261 2657 
Q 3669 2231 3669 1497 
Q 3669 778 3244 343 
Q 2819 -91 2113 -91 
Q 1303 -91 875 529 
Q 447 1150 447 2328 
Q 447 3434 972 4092 
Q 1497 4750 2381 4750 
Q 2619 4750 2861 4703 
Q 3103 4656 3366 4563 
z
" transform="scale(0.015625)"/>
       </defs>
       <use xlink:href="#DejaVuSans-36"/>
      </g>
     </g>
    </g>
    <g id="xtick_8">
     <g id="line2d_15">
      <path d="M 263.214545 307.584 
L 263.214545 41.472 
" clip-path="url(#p0e3b9b04f0)" style="fill: none; stroke: #b0b0b0; stroke-width: 0.8; stroke-linecap: square"/>
     </g>
     <g id="line2d_16">
      <g>
       <use xlink:href="#md31cc88904" x="263.214545" y="307.584" style="stroke: #000000; stroke-width: 0.8"/>
      </g>
     </g>
     <g id="text_8">
      <!-- 7 -->
      <g transform="translate(260.033295 322.182437) scale(0.1 -0.1)">
       <defs>
        <path id="DejaVuSans-37" d="M 525 4666 
L 3525 4666 
L 3525 4397 
L 1831 0 
L 1172 0 
L 2766 4134 
L 525 4134 
L 525 4666 
z
" transform="scale(0.015625)"/>
       </defs>
       <use xlink:href="#DejaVuSans-37"/>
      </g>
     </g>
    </g>
    <g id="xtick_9">
     <g id="line2d_17">
      <path d="M 290.269091 307.584 
L 290.269091 41.472 
" clip-path="url(#p0e3b9b04f0)" style="fill: none; stroke: #b0b0b0; stroke-width: 0.8; stroke-linecap: square"/>
     </g>
     <g id="line2d_18">
      <g>
       <use xlink:href="#md31cc88904" x="290.269091" y="307.584" style="stroke: #000000; stroke-width: 0.8"/>
      </g>
     </g>
     <g id="text_9">
      <!-- 8 -->
      <g transform="translate(287.087841 322.182437) scale(0.1 -0.1)">
       <defs>
        <path id="DejaVuSans-38" d="M 2034 2216 
Q 1584 2216 1326 1975 
Q 1069 1734 1069 1313 
Q 1069 891 1326 650 
Q 1584 409 2034 409 
Q 2484 409 2743 651 
Q 3003 894 3003 1313 
Q 3003 1734 2745 1975 
Q 2488 2216 2034 2216 
z
M 1403 2484 
Q 997 2584 770 2862 
Q 544 3141 544 3541 
Q 544 4100 942 4425 
Q 1341 4750 2034 4750 
Q 2731 4750 3128 4425 
Q 3525 4100 3525 3541 
Q 3525 3141 3298 2862 
Q 3072 2584 2669 2484 
Q 3125 2378 3379 2068 
Q 3634 1759 3634 1313 
Q 3634 634 3220 271 
Q 2806 -91 2034 -91 
Q 1263 -91 848 271 
Q 434 634 434 1313 
Q 434 1759 690 2068 
Q 947 2378 1403 2484 
z
M 1172 3481 
Q 1172 3119 1398 2916 
Q 1625 2713 2034 2713 
Q 2441 2713 2670 2916 
Q 2900 3119 2900 3481 
Q 2900 3844 2670 4047 
Q 2441 4250 2034 4250 
Q 1625 4250 1398 4047 
Q 1172 3844 1172 3481 
z
" transform="scale(0.015625)"/>
       </defs>
       <use xlink:href="#DejaVuSans-38"/>
      </g>
     </g>
    </g>
    <g id="xtick_10">
     <g id="line2d_19">
      <path d="M 317.323636 307.584 
L 317.323636 41.472 
" clip-path="url(#p0e3b9b04f0)" style="fill: none; stroke: #b0b0b0; stroke-width: 0.8; stroke-linecap: square"/>
     </g>
     <g id="line2d_20">
      <g>
       <use xlink:href="#md31cc88904" x="317.323636" y="307.584" style="stroke: #000000; stroke-width: 0.8"/>
      </g>
     </g>
     <g id="text_10">
      <!-- 9 -->
      <g transform="translate(314.142386 322.182437) scale(0.1 -0.1)">
       <defs>
        <path id="DejaVuSans-39" d="M 703 97 
L 703 672 
Q 941 559 1184 500 
Q 1428 441 1663 441 
Q 2288 441 2617 861 
Q 2947 1281 2994 2138 
Q 2813 1869 2534 1725 
Q 2256 1581 1919 1581 
Q 1219 1581 811 2004 
Q 403 2428 403 3163 
Q 403 3881 828 4315 
Q 1253 4750 1959 4750 
Q 2769 4750 3195 4129 
Q 3622 3509 3622 2328 
Q 3622 1225 3098 567 
Q 2575 -91 1691 -91 
Q 1453 -91 1209 -44 
Q 966 3 703 97 
z
M 1959 2075 
Q 2384 2075 2632 2365 
Q 2881 2656 2881 3163 
Q 2881 3666 2632 3958 
Q 2384 4250 1959 4250 
Q 1534 4250 1286 3958 
Q 1038 3666 1038 3163 
Q 1038 2656 1286 2365 
Q 1534 2075 1959 2075 
z
" transform="scale(0.015625)"/>
       </defs>
       <use xlink:href="#DejaVuSans-39"/>
      </g>
     </g>
    </g>
    <g id="xtick_11">
     <g id="line2d_21">
      <path d="M 344.378182 307.584 
L 344.378182 41.472 
" clip-path="url(#p0e3b9b04f0)" style="fill: none; stroke: #b0b0b0; stroke-width: 0.8; stroke-linecap: square"/>
     </g>
     <g id="line2d_22">
      <g>
       <use xlink:href="#md31cc88904" x="344.378182" y="307.584" style="stroke: #000000; stroke-width: 0.8"/>
      </g>
     </g>
     <g id="text_11">
      <!-- 10 -->
      <g transform="translate(338.015682 322.182437) scale(0.1 -0.1)">
       <use xlink:href="#DejaVuSans-31"/>
       <use xlink:href="#DejaVuSans-30" x="63.623047"/>
      </g>
     </g>
    </g>
    <g id="xtick_12">
     <g id="line2d_23">
      <path d="M 371.432727 307.584 
L 371.432727 41.472 
" clip-path="url(#p0e3b9b04f0)" style="fill: none; stroke: #b0b0b0; stroke-width: 0.8; stroke-linecap: square"/>
     </g>
     <g id="line2d_24">
      <g>
       <use xlink:href="#md31cc88904" x="371.432727" y="307.584" style="stroke: #000000; stroke-width: 0.8"/>
      </g>
     </g>
     <g id="text_12">
      <!-- 11 -->
      <g transform="translate(365.070227 322.182437) scale(0.1 -0.1)">
       <use xlink:href="#DejaVuSans-31"/>
       <use xlink:href="#DejaVuSans-31" x="63.623047"/>
      </g>
     </g>
    </g>
    <g id="xtick_13">
     <g id="line2d_25">
      <path d="M 398.487273 307.584 
L 398.487273 41.472 
" clip-path="url(#p0e3b9b04f0)" style="fill: none; stroke: #b0b0b0; stroke-width: 0.8; stroke-linecap: square"/>
     </g>
     <g id="line2d_26">
      <g>
       <use xlink:href="#md31cc88904" x="398.487273" y="307.584" style="stroke: #000000; stroke-width: 0.8"/>
      </g>
     </g>
     <g id="text_13">
      <!-- 12 -->
      <g transform="translate(392.124773 322.182437) scale(0.1 -0.1)">
       <use xlink:href="#DejaVuSans-31"/>
       <use xlink:href="#DejaVuSans-32" x="63.623047"/>
      </g>
     </g>
    </g>
   </g>
   <g id="matplotlib.axis_2">
    <g id="ytick_1">
     <g id="line2d_27">
      <path d="M 57.6 295.488 
L 414.72 295.488 
" clip-path="url(#p0e3b9b04f0)" style="fill: none; stroke: #b0b0b0; stroke-width: 0.8; stroke-linecap: square"/>
     </g>
     <g id="line2d_28">
      <defs>
       <path id="m487c9ed014" d="M 0 0 
L -3.5 0 
" style="stroke: #000000; stroke-width: 0.8"/>
      </defs>
      <g>
       <use xlink:href="#m487c9ed014" x="57.6" y="295.488" style="stroke: #000000; stroke-width: 0.8"/>
      </g>
     </g>
     <g id="text_14">
      <!-- 0 -->
      <g transform="translate(44.2375 299.287219) scale(0.1 -0.1)">
       <use xlink:href="#DejaVuSans-30"/>
      </g>
     </g>
    </g>
    <g id="ytick_2">
     <g id="line2d_29">
      <path d="M 57.6 247.055568 
L 414.72 247.055568 
" clip-path="url(#p0e3b9b04f0)" style="fill: none; stroke: #b0b0b0; stroke-width: 0.8; stroke-linecap: square"/>
     </g>
     <g id="line2d_30">
      <g>
       <use xlink:href="#m487c9ed014" x="57.6" y="247.055568" style="stroke: #000000; stroke-width: 0.8"/>
      </g>
     </g>
     <g id="text_15">
      <!-- 200 -->
      <g transform="translate(31.5125 250.854786) scale(0.1 -0.1)">
       <use xlink:href="#DejaVuSans-32"/>
       <use xlink:href="#DejaVuSans-30" x="63.623047"/>
       <use xlink:href="#DejaVuSans-30" x="127.246094"/>
      </g>
     </g>
    </g>
    <g id="ytick_3">
     <g id="line2d_31">
      <path d="M 57.6 198.623135 
L 414.72 198.623135 
" clip-path="url(#p0e3b9b04f0)" style="fill: none; stroke: #b0b0b0; stroke-width: 0.8; stroke-linecap: square"/>
     </g>
     <g id="line2d_32">
      <g>
       <use xlink:href="#m487c9ed014" x="57.6" y="198.623135" style="stroke: #000000; stroke-width: 0.8"/>
      </g>
     </g>
     <g id="text_16">
      <!-- 400 -->
      <g transform="translate(31.5125 202.422354) scale(0.1 -0.1)">
       <use xlink:href="#DejaVuSans-34"/>
       <use xlink:href="#DejaVuSans-30" x="63.623047"/>
       <use xlink:href="#DejaVuSans-30" x="127.246094"/>
      </g>
     </g>
    </g>
    <g id="ytick_4">
     <g id="line2d_33">
      <path d="M 57.6 150.190703 
L 414.72 150.190703 
" clip-path="url(#p0e3b9b04f0)" style="fill: none; stroke: #b0b0b0; stroke-width: 0.8; stroke-linecap: square"/>
     </g>
     <g id="line2d_34">
      <g>
       <use xlink:href="#m487c9ed014" x="57.6" y="150.190703" style="stroke: #000000; stroke-width: 0.8"/>
      </g>
     </g>
     <g id="text_17">
      <!-- 600 -->
      <g transform="translate(31.5125 153.989921) scale(0.1 -0.1)">
       <use xlink:href="#DejaVuSans-36"/>
       <use xlink:href="#DejaVuSans-30" x="63.623047"/>
       <use xlink:href="#DejaVuSans-30" x="127.246094"/>
      </g>
     </g>
    </g>
    <g id="ytick_5">
     <g id="line2d_35">
      <path d="M 57.6 101.75827 
L 414.72 101.75827 
" clip-path="url(#p0e3b9b04f0)" style="fill: none; stroke: #b0b0b0; stroke-width: 0.8; stroke-linecap: square"/>
     </g>
     <g id="line2d_36">
      <g>
       <use xlink:href="#m487c9ed014" x="57.6" y="101.75827" style="stroke: #000000; stroke-width: 0.8"/>
      </g>
     </g>
     <g id="text_18">
      <!-- 800 -->
      <g transform="translate(31.5125 105.557489) scale(0.1 -0.1)">
       <use xlink:href="#DejaVuSans-38"/>
       <use xlink:href="#DejaVuSans-30" x="63.623047"/>
       <use xlink:href="#DejaVuSans-30" x="127.246094"/>
      </g>
     </g>
    </g>
    <g id="ytick_6">
     <g id="line2d_37">
      <path d="M 57.6 53.325838 
L 414.72 53.325838 
" clip-path="url(#p0e3b9b04f0)" style="fill: none; stroke: #b0b0b0; stroke-width: 0.8; stroke-linecap: square"/>
     </g>
     <g id="line2d_38">
      <g>
       <use xlink:href="#m487c9ed014" x="57.6" y="53.325838" style="stroke: #000000; stroke-width: 0.8"/>
      </g>
     </g>
     <g id="text_19">
      <!-- 1000 -->
      <g transform="translate(25.15 57.125057) scale(0.1 -0.1)">
       <use xlink:href="#DejaVuSans-31"/>
       <use xlink:href="#DejaVuSans-30" x="63.623047"/>
       <use xlink:href="#DejaVuSans-30" x="127.246094"/>
       <use xlink:href="#DejaVuSans-30" x="190.869141"/>
      </g>
     </g>
    </g>
   </g>
   <g id="line2d_39">
    <path d="M 73.832727 53.568 
L 76.560917 53.649061 
L 79.289106 53.748165 
L 82.017296 53.869292 
L 84.745485 54.017263 
L 87.473675 54.19806 
L 90.201864 54.418865 
L 92.930053 54.688381 
L 95.658243 55.016897 
L 98.386432 55.417245 
L 101.114622 55.905163 
L 103.842811 56.499296 
L 106.571001 57.221192 
L 109.29919 58.095817 
L 112.02738 59.154769 
L 114.755569 60.435482 
L 117.483759 61.980636 
L 120.211948 63.838156 
L 122.940138 66.06121 
L 125.668327 68.707434 
L 128.396516 71.827181 
L 131.124706 75.503991 
L 133.852895 79.817852 
L 136.581085 84.829183 
L 139.309274 90.578826 
L 142.037464 97.088053 
L 144.765653 104.358562 
L 147.493843 112.38152 
L 150.222032 121.137119 
L 152.950222 130.470573 
L 155.678411 140.213424 
L 158.4066 150.202684 
L 161.13479 160.28084 
L 163.862979 170.295852 
L 166.591169 180.101155 
L 169.319358 189.555654 
L 172.047548 198.52373 
L 174.775737 206.877258 
L 177.503927 214.56387 
L 180.232116 221.587522 
L 182.960306 227.955423 
L 185.688495 233.684289 
L 188.416684 238.800337 
L 191.144874 243.339289 
L 193.873063 247.346371 
L 196.601253 250.876314 
L 199.329442 253.993352 
L 202.057632 256.771223 
L 204.785821 259.271651 
L 207.514011 261.487631 
L 210.2422 263.451873 
L 212.97039 265.198035 
L 215.698579 266.755482 
L 218.426769 268.149284 
L 221.154958 269.400214 
L 223.883147 270.52475 
L 226.611337 271.535074 
L 229.339526 272.439075 
L 232.067716 273.240365 
L 234.795905 273.954051 
L 237.524095 274.597508 
L 240.252284 275.177297 
L 242.980474 275.6996 
L 245.708663 276.17022 
L 248.436853 276.594584 
L 251.165042 276.977739 
L 253.893231 277.324357 
L 256.621421 277.638729 
L 259.34961 277.92477 
L 262.0778 278.186018 
L 264.805989 278.425483 
L 267.534179 278.644563 
L 270.262368 278.84461 
L 272.990558 279.027057 
L 275.718747 279.193294 
L 278.446937 279.344673 
L 281.175126 279.4825 
L 283.903316 279.608043 
L 286.631505 279.722528 
L 289.359694 279.827139 
L 292.087884 279.923019 
L 294.816073 280.011271 
L 297.544263 280.092887 
L 300.272452 280.16806 
L 303.000642 280.2371 
L 305.728831 280.300433 
L 308.457021 280.358476 
L 311.18521 280.411632 
L 313.9134 280.460295 
L 316.641589 280.504846 
L 319.369778 280.545657 
L 322.097968 280.583087 
L 324.826157 280.617484 
L 327.554347 280.649186 
L 330.282536 280.678508 
L 333.010726 280.705567 
L 335.738915 280.730473 
L 338.467105 280.753373 
L 341.195294 280.774408 
L 343.923484 280.793718 
L 346.651673 280.811436 
L 349.379862 280.827692 
L 352.108052 280.842612 
L 354.836241 280.856319 
L 357.564431 280.86893 
L 360.29262 280.880558 
L 363.02081 280.891311 
L 365.748999 280.901235 
L 368.477189 280.910375 
L 371.205378 280.918786 
L 373.933568 280.926518 
L 376.661757 280.933622 
L 379.389947 280.940146 
L 382.118136 280.946137 
L 384.846325 280.95164 
L 387.574515 280.9567 
L 390.302704 280.961358 
L 393.030894 280.965655 
L 395.759083 280.969627 
L 398.487273 280.973285 
" clip-path="url(#p0e3b9b04f0)" style="fill: none; stroke: #0000cd; stroke-width: 1.5; stroke-linecap: square"/>
   </g>
   <g id="line2d_40">
    <path d="M 73.832727 295.245838 
L 76.560917 295.191829 
L 79.289106 295.125811 
L 82.017296 295.04514 
L 84.745485 294.946618 
L 87.473675 294.826281 
L 90.201864 294.679379 
L 92.930053 294.500178 
L 95.658243 294.28187 
L 98.386432 294.016002 
L 101.114622 293.69228 
L 103.842811 293.298563 
L 106.571001 292.820876 
L 109.29919 292.243435 
L 112.02738 291.545599 
L 114.755569 290.703309 
L 117.483759 289.690032 
L 120.211948 288.476755 
L 122.940138 287.031989 
L 125.668327 285.322429 
L 128.396516 283.323608 
L 131.124706 280.987274 
L 133.852895 278.271465 
L 136.581085 275.153821 
L 139.309274 271.631586 
L 142.037464 267.72161 
L 144.765653 263.460346 
L 147.493843 258.894636 
L 150.222032 254.073499 
L 152.950222 249.162872 
L 155.678411 244.329772 
L 158.4066 239.723673 
L 161.13479 235.476505 
L 163.862979 231.702655 
L 166.591169 228.498965 
L 169.319358 225.944735 
L 172.047548 224.101719 
L 174.775737 223.013049 
L 177.503927 222.660359 
L 180.232116 222.972812 
L 182.960306 223.878398 
L 185.688495 225.303629 
L 188.416684 227.173535 
L 191.144874 229.411668 
L 193.873063 231.940097 
L 196.601253 234.679413 
L 199.329442 237.548725 
L 202.057632 240.465662 
L 204.785821 243.365255 
L 207.514011 246.251668 
L 210.2422 249.09981 
L 212.97039 251.884703 
L 215.698579 254.585934 
L 218.426769 257.187653 
L 221.154958 259.678576 
L 223.883147 262.051984 
L 226.611337 264.305721 
L 229.339526 266.442198 
L 232.067716 268.468371 
L 234.795905 270.382672 
L 237.524095 272.181015 
L 240.252284 273.867615 
L 242.980474 275.446785 
L 245.708663 276.922929 
L 248.436853 278.300547 
L 251.165042 279.584232 
L 253.893231 280.778671 
L 256.621421 281.888647 
L 259.34961 282.919035 
L 262.0778 283.874805 
L 264.805989 284.761148 
L 267.534179 285.583525 
L 270.262368 286.34586 
L 272.990558 287.051772 
L 275.718747 287.704787 
L 278.446937 288.308339 
L 281.175126 288.865772 
L 283.903316 289.380337 
L 286.631505 289.855194 
L 289.359694 290.293411 
L 292.087884 290.697966 
L 294.816073 291.071742 
L 297.544263 291.417493 
L 300.272452 291.737195 
L 303.000642 292.032434 
L 305.728831 292.304791 
L 308.457021 292.555802 
L 311.18521 292.786962 
L 313.9134 292.999723 
L 316.641589 293.195496 
L 319.369778 293.375646 
L 322.097968 293.541498 
L 324.826157 293.694334 
L 327.554347 293.835393 
L 330.282536 293.96585 
L 333.010726 294.086383 
L 335.738915 294.197551 
L 338.467105 294.299975 
L 341.195294 294.394256 
L 343.923484 294.480978 
L 346.651673 294.560708 
L 349.379862 294.633996 
L 352.108052 294.701375 
L 354.836241 294.763358 
L 357.564431 294.820444 
L 360.29262 294.873112 
L 363.02081 294.921813 
L 365.748999 294.966783 
L 368.477189 295.008236 
L 371.205378 295.046408 
L 373.933568 295.081527 
L 376.661757 295.113817 
L 379.389947 295.143492 
L 382.118136 295.170761 
L 384.846325 295.195825 
L 387.574515 295.21888 
L 390.302704 295.240113 
L 393.030894 295.259705 
L 395.759083 295.277814 
L 398.487273 295.294498 
" clip-path="url(#p0e3b9b04f0)" style="fill: none; stroke: #008000; stroke-width: 1.5; stroke-linecap: square"/>
   </g>
   <g id="line2d_41">
    <path d="M 73.832727 295.488 
L 76.560917 295.460948 
L 79.289106 295.427862 
L 82.017296 295.387405 
L 84.745485 295.337956 
L 87.473675 295.277496 
L 90.201864 295.203594 
L 92.930053 295.113279 
L 95.658243 295.003071 
L 98.386432 294.868591 
L 101.114622 294.704395 
L 103.842811 294.503979 
L 106.571001 294.259769 
L 109.29919 293.962586 
L 112.02738 293.60147 
L 114.755569 293.163047 
L 117.483759 292.63117 
L 120.211948 291.986927 
L 122.940138 291.208639 
L 125.668327 290.271975 
L 128.396516 289.151049 
L 131.124706 287.810573 
L 133.852895 286.21252 
L 136.581085 284.318834 
L 139.309274 282.091426 
L 142.037464 279.492175 
L 144.765653 276.482929 
L 147.493843 273.025682 
L 150.222032 269.09122 
L 152.950222 264.668392 
L 155.678411 259.758642 
L 158.4066 254.375481 
L 161.13479 248.544493 
L 163.862979 242.303331 
L 166.591169 235.701718 
L 169.319358 228.801449 
L 172.047548 221.676388 
L 174.775737 214.411531 
L 177.503927 207.077609 
L 180.232116 199.741504 
L 182.960306 192.468017 
L 185.688495 185.31392 
L 188.416684 178.327966 
L 191.144874 171.550881 
L 193.873063 165.01537 
L 196.601253 158.746111 
L 199.329442 152.759761 
L 202.057632 147.064953 
L 204.785821 141.664931 
L 207.514011 136.562538 
L 210.2422 131.750155 
L 212.97039 127.2191 
L 215.698579 122.960422 
L 218.426769 118.964901 
L 221.154958 115.223048 
L 223.883147 111.725104 
L 226.611337 108.461042 
L 229.339526 105.420565 
L 232.067716 102.593101 
L 234.795905 99.965115 
L 237.524095 97.523315 
L 240.252284 95.256925 
L 242.980474 93.155453 
L 245.708663 91.208688 
L 248.436853 89.406707 
L 251.165042 87.739867 
L 253.893231 86.19881 
L 256.621421 84.774462 
L 259.34961 83.458032 
L 262.0778 82.241014 
L 264.805989 81.115207 
L 267.534179 80.07375 
L 270.262368 79.111367 
L 272.990558 78.223009 
L 275.718747 77.403756 
L 278.446937 76.648826 
L 281.175126 75.953566 
L 283.903316 75.313458 
L 286.631505 74.724116 
L 289.359694 74.181288 
L 292.087884 73.680853 
L 294.816073 73.218825 
L 297.544263 72.791458 
L 300.272452 72.396583 
L 303.000642 72.032304 
L 305.728831 71.696614 
L 308.457021 71.38756 
L 311.18521 71.103244 
L 313.9134 70.84182 
L 316.641589 70.601496 
L 319.369778 70.380535 
L 322.097968 70.177253 
L 324.826157 69.99002 
L 327.554347 69.817258 
L 330.282536 69.657479 
L 333.010726 69.509888 
L 335.738915 69.373814 
L 338.467105 69.24849 
L 341.195294 69.133174 
L 343.923484 69.027142 
L 346.651673 68.929694 
L 349.379862 68.84015 
L 352.108052 68.757851 
L 354.836241 68.682161 
L 357.564431 68.612465 
L 360.29262 68.548168 
L 363.02081 68.488714 
L 365.748999 68.43382 
L 368.477189 68.383226 
L 371.205378 68.336644 
L 373.933568 68.293792 
L 376.661757 68.254399 
L 379.389947 68.2182 
L 382.118136 68.18494 
L 384.846325 68.154373 
L 387.574515 68.126258 
L 390.302704 68.100368 
L 393.030894 68.076478 
L 395.759083 68.054397 
L 398.487273 68.034055 
" clip-path="url(#p0e3b9b04f0)" style="fill: none; stroke: #ff0000; stroke-width: 1.5; stroke-linecap: square"/>
   </g>
   <g id="line2d_42">
    <path d="M 57.6 214.767279 
L 414.72 214.767279 
" clip-path="url(#p0e3b9b04f0)" style="fill: none; stroke-dasharray: 1.5,2.475; stroke-dashoffset: 0; stroke: #000000; stroke-width: 1.5"/>
   </g>
   <g id="patch_3">
    <path d="M 57.6 307.584 
L 57.6 41.472 
" style="fill: none; stroke: #000000; stroke-width: 0.8; stroke-linejoin: miter; stroke-linecap: square"/>
   </g>
   <g id="patch_4">
    <path d="M 414.72 307.584 
L 414.72 41.472 
" style="fill: none; stroke: #000000; stroke-width: 0.8; stroke-linejoin: miter; stroke-linecap: square"/>
   </g>
   <g id="patch_5">
    <path d="M 57.6 307.584 
L 414.72 307.584 
" style="fill: none; stroke: #000000; stroke-width: 0.8; stroke-linejoin: miter; stroke-linecap: square"/>
   </g>
   <g id="patch_6">
    <path d="M 57.6 41.472 
L 414.72 41.472 
" style="fill: none; stroke: #000000; stroke-width: 0.8; stroke-linejoin: miter; stroke-linecap: square"/>
   </g>
   <g id="legend_1">
    <g id="patch_7">
     <path d="M 357.02 205.38425 
L 407.72 205.38425 
Q 409.72 205.38425 409.72 203.38425 
L 409.72 145.67175 
Q 409.72 143.67175 407.72 143.67175 
L 357.02 143.67175 
Q 355.02 143.67175 355.02 145.67175 
L 355.02 203.38425 
Q 355.02 205.38425 357.02 205.38425 
z
" style="fill: #ffffff; opacity: 0.8; stroke: #cccccc; stroke-linejoin: miter"/>
    </g>
    <g id="line2d_43">
     <path d="M 359.02 151.770188 
L 369.02 151.770188 
L 379.02 151.770188 
" style="fill: none; stroke: #0000cd; stroke-width: 1.5; stroke-linecap: square"/>
    </g>
    <g id="text_20">
     <!-- $S(t)$ -->
     <g transform="translate(387.02 155.270188) scale(0.1 -0.1)">
      <defs>
       <path id="DejaVuSans-Oblique-53" d="M 3859 4513 
L 3738 3897 
Q 3422 4066 3111 4152 
Q 2800 4238 2509 4238 
Q 1944 4238 1609 3991 
Q 1275 3744 1275 3334 
Q 1275 3109 1398 2989 
Q 1522 2869 2034 2731 
L 2413 2638 
Q 3053 2472 3303 2217 
Q 3553 1963 3553 1503 
Q 3553 797 2998 353 
Q 2444 -91 1538 -91 
Q 1166 -91 791 -17 
Q 416 56 38 206 
L 166 856 
Q 513 641 861 531 
Q 1209 422 1556 422 
Q 2147 422 2503 684 
Q 2859 947 2859 1369 
Q 2859 1650 2717 1795 
Q 2575 1941 2106 2059 
L 1728 2156 
Q 1081 2325 845 2545 
Q 609 2766 609 3163 
Q 609 3859 1145 4304 
Q 1681 4750 2541 4750 
Q 2875 4750 3203 4690 
Q 3531 4631 3859 4513 
z
" transform="scale(0.015625)"/>
       <path id="DejaVuSans-28" d="M 1984 4856 
Q 1566 4138 1362 3434 
Q 1159 2731 1159 2009 
Q 1159 1288 1364 580 
Q 1569 -128 1984 -844 
L 1484 -844 
Q 1016 -109 783 600 
Q 550 1309 550 2009 
Q 550 2706 781 3412 
Q 1013 4119 1484 4856 
L 1984 4856 
z
" transform="scale(0.015625)"/>
       <path id="DejaVuSans-Oblique-74" d="M 2706 3500 
L 2619 3053 
L 1472 3053 
L 1100 1153 
Q 1081 1047 1072 975 
Q 1063 903 1063 863 
Q 1063 663 1183 572 
Q 1303 481 1569 481 
L 2150 481 
L 2053 0 
L 1503 0 
Q 991 0 739 200 
Q 488 400 488 806 
Q 488 878 497 964 
Q 506 1050 525 1153 
L 897 3053 
L 409 3053 
L 500 3500 
L 978 3500 
L 1172 4494 
L 1747 4494 
L 1556 3500 
L 2706 3500 
z
" transform="scale(0.015625)"/>
       <path id="DejaVuSans-29" d="M 513 4856 
L 1013 4856 
Q 1481 4119 1714 3412 
Q 1947 2706 1947 2009 
Q 1947 1309 1714 600 
Q 1481 -109 1013 -844 
L 513 -844 
Q 928 -128 1133 580 
Q 1338 1288 1338 2009 
Q 1338 2731 1133 3434 
Q 928 4138 513 4856 
z
" transform="scale(0.015625)"/>
      </defs>
      <use xlink:href="#DejaVuSans-Oblique-53" transform="translate(0 0.125)"/>
      <use xlink:href="#DejaVuSans-28" transform="translate(63.476562 0.125)"/>
      <use xlink:href="#DejaVuSans-Oblique-74" transform="translate(102.490234 0.125)"/>
      <use xlink:href="#DejaVuSans-29" transform="translate(141.699219 0.125)"/>
     </g>
    </g>
    <g id="line2d_44">
     <path d="M 359.02 166.448313 
L 369.02 166.448313 
L 379.02 166.448313 
" style="fill: none; stroke: #008000; stroke-width: 1.5; stroke-linecap: square"/>
    </g>
    <g id="text_21">
     <!-- $I(t)$ -->
     <g transform="translate(387.02 169.948313) scale(0.1 -0.1)">
      <defs>
       <path id="DejaVuSans-Oblique-49" d="M 1081 4666 
L 1716 4666 
L 806 0 
L 172 0 
L 1081 4666 
z
" transform="scale(0.015625)"/>
      </defs>
      <use xlink:href="#DejaVuSans-Oblique-49" transform="translate(0 0.125)"/>
      <use xlink:href="#DejaVuSans-28" transform="translate(29.492188 0.125)"/>
      <use xlink:href="#DejaVuSans-Oblique-74" transform="translate(68.505859 0.125)"/>
      <use xlink:href="#DejaVuSans-29" transform="translate(107.714844 0.125)"/>
     </g>
    </g>
    <g id="line2d_45">
     <path d="M 359.02 181.126438 
L 369.02 181.126438 
L 379.02 181.126438 
" style="fill: none; stroke: #ff0000; stroke-width: 1.5; stroke-linecap: square"/>
    </g>
    <g id="text_22">
     <!-- $R(t)$ -->
     <g transform="translate(387.02 184.626438) scale(0.1 -0.1)">
      <defs>
       <path id="DejaVuSans-Oblique-52" d="M 1613 4147 
L 1294 2491 
L 2106 2491 
Q 2584 2491 2879 2755 
Q 3175 3019 3175 3444 
Q 3175 3784 2976 3965 
Q 2778 4147 2406 4147 
L 1613 4147 
z
M 2772 2241 
Q 2972 2194 3105 2009 
Q 3238 1825 3413 1275 
L 3809 0 
L 3144 0 
L 2778 1197 
Q 2638 1659 2453 1815 
Q 2269 1972 1888 1972 
L 1191 1972 
L 806 0 
L 172 0 
L 1081 4666 
L 2503 4666 
Q 3150 4666 3495 4373 
Q 3841 4081 3841 3531 
Q 3841 3044 3547 2687 
Q 3253 2331 2772 2241 
z
" transform="scale(0.015625)"/>
      </defs>
      <use xlink:href="#DejaVuSans-Oblique-52" transform="translate(0 0.125)"/>
      <use xlink:href="#DejaVuSans-28" transform="translate(69.482422 0.125)"/>
      <use xlink:href="#DejaVuSans-Oblique-74" transform="translate(108.496094 0.125)"/>
      <use xlink:href="#DejaVuSans-29" transform="translate(147.705078 0.125)"/>
     </g>
    </g>
    <g id="line2d_46">
     <path d="M 359.02 195.804563 
L 369.02 195.804563 
L 379.02 195.804563 
" style="fill: none; stroke-dasharray: 1.5,2.475; stroke-dashoffset: 0; stroke: #000000; stroke-width: 1.5"/>
    </g>
    <g id="text_23">
     <!-- $S^\ast$ -->
     <g transform="translate(387.02 199.304563) scale(0.1 -0.1)">
      <defs>
       <path id="DejaVuSans-2217" d="M 2153 2006 
L 816 2778 
L 1081 3238 
L 2419 2466 
L 2419 4013 
L 2944 4013 
L 2944 2466 
L 4281 3238 
L 4547 2778 
L 3209 2006 
L 4547 1234 
L 4281 775 
L 2944 1547 
L 2944 0 
L 2419 0 
L 2419 1547 
L 1081 775 
L 816 1234 
L 2153 2006 
z
" transform="scale(0.015625)"/>
      </defs>
      <use xlink:href="#DejaVuSans-Oblique-53" transform="translate(0 0.826562)"/>
      <use xlink:href="#DejaVuSans-2217" transform="translate(84.314779 39.107812) scale(0.7)"/>
     </g>
    </g>
   </g>
  </g>
 </g>
 <defs>
  <clipPath id="p0e3b9b04f0">
   <rect x="57.6" y="41.472" width="357.12" height="266.112"/>
  </clipPath>
 </defs>
</svg>
